Tilt-Neon-Model Scaled.ufo
<glyph name="exclam" format="2">
  <advance width="291"/>
  <unicode hex="0021"/>
  <outline>
    <contour>
      <point x="180.0" y="690.0" type="curve" smooth="yes"/>
      <point x="180.0" y="285.0" type="line" smooth="yes"/>
      <point x="180.0" y="258.0"/>
      <point x="156.99999999999997" y="235.0"/>
      <point x="129.99999999999997" y="235.0" type="curve" smooth="yes"/>
      <point x="102.99999999999997" y="235.0"/>
      <point x="79.99999999999999" y="258.0"/>
      <point x="80.0" y="285.0" type="curve" smooth="yes"/>
      <point x="80.0" y="690.0" type="line" smooth="yes"/>
      <point x="80.00000000000001" y="717.0"/>
      <point x="103.00000000000003" y="740.0"/>
      <point x="130.00000000000003" y="740.0" type="curve" smooth="yes"/>
      <point x="157.00000000000003" y="740.0"/>
      <point x="180.0" y="717.0"/>
    </contour>
    <contour>
      <point x="132.7253004752585" y="-9.467956768242672" type="curve" smooth="yes"/>
      <point x="42.135559641754305" y="3.8540639425667735"/>
      <point x="42.135559641754234" y="120.14593605743319"/>
      <point x="132.72530047525848" y="133.46795676824266" type="curve" smooth="yes"/>
      <point x="159.43799713010952" y="137.3962945116031"/>
      <point x="185.53961902488223" y="117.98739617959257"/>
      <point x="189.46795676824266" y="91.27469952474152" type="curve" smooth="yes"/>
      <point x="193.3962945116031" y="64.56200286989048"/>
      <point x="173.98739617959257" y="38.460380975117765"/>
      <point x="147.27469952474152" y="34.532043231757335" type="curve" smooth="yes"/>
      <point x="144.71042117305674" y="34.154943474156646"/>
      <point x="144.71042117305672" y="89.84505652584338"/>
      <point x="147.2746995247415" y="89.46795676824267" type="curve" smooth="yes"/>
      <point x="173.98739617959254" y="85.53961902488227"/>
      <point x="193.3962945116031" y="59.43799713010955"/>
      <point x="189.4679567682427" y="32.72530047525851" type="curve" smooth="yes"/>
      <point x="185.53961902488228" y="6.012603820407463"/>
      <point x="159.43799713010955" y="-13.396294511603077"/>
    </contour>
  </outline>
</glyph>
<glyph name="dollar" format="2">
  <advance width="478"/>
  <unicode hex="0024"/>
  <outline>
    <contour>
      <point x="294" y="690" type="curve" smooth="yes"/>
      <point x="294" y="585" type="line" smooth="yes"/>
      <point x="294" y="558"/>
      <point x="271" y="535"/>
      <point x="244" y="535" type="curve" smooth="yes"/>
      <point x="217" y="535"/>
      <point x="194" y="558"/>
      <point x="194" y="585" type="curve" smooth="yes"/>
      <point x="194" y="690" type="line" smooth="yes"/>
      <point x="194" y="717"/>
      <point x="217" y="740"/>
      <point x="244" y="740" type="curve" smooth="yes"/>
      <point x="271" y="740"/>
      <point x="294" y="717"/>
    </contour>
    <contour>
      <point x="294" y="90" type="curve" smooth="yes"/>
      <point x="294" y="-15" type="line" smooth="yes"/>
      <point x="294" y="-42"/>
      <point x="271" y="-65"/>
      <point x="244" y="-65" type="curve" smooth="yes"/>
      <point x="217" y="-65"/>
      <point x="194" y="-42"/>
      <point x="194" y="-15" type="curve" smooth="yes"/>
      <point x="194" y="90" type="line" smooth="yes"/>
      <point x="194" y="117"/>
      <point x="217" y="140"/>
      <point x="244" y="140" type="curve" smooth="yes"/>
      <point x="271" y="140"/>
      <point x="294" y="117"/>
    </contour>
    <contour>
      <point x="354" y="499" type="curve" smooth="yes"/>
      <point x="269" y="545"/>
      <point x="152" y="537"/>
      <point x="152" y="464" type="curve" smooth="yes"/>
      <point x="152" y="356"/>
      <point x="443" y="418"/>
      <point x="443" y="207" type="curve" smooth="yes"/>
      <point x="443" y="56"/>
      <point x="252" y="-5"/>
      <point x="74" y="102" type="curve" smooth="yes"/>
      <point x="51" y="116"/>
      <point x="43" y="148"/>
      <point x="57" y="171" type="curve" smooth="yes"/>
      <point x="71" y="194"/>
      <point x="102" y="202"/>
      <point x="126" y="188" type="curve" smooth="yes"/>
      <point x="216" y="133"/>
      <point x="343" y="131"/>
      <point x="343" y="207" type="curve" smooth="yes"/>
      <point x="343" y="322"/>
      <point x="52" y="265"/>
      <point x="52" y="464" type="curve" smooth="yes"/>
      <point x="52" y="609"/>
      <point x="233" y="678"/>
      <point x="401" y="587" type="curve" smooth="yes"/>
      <point x="425" y="574"/>
      <point x="435" y="543"/>
      <point x="422" y="519" type="curve" smooth="yes"/>
      <point x="409" y="496"/>
      <point x="378" y="486"/>
    </contour>
  </outline>
</glyph>
<glyph name="parenleft" format="2">
  <advance width="462"/>
  <unicode hex="0028"/>
  <outline>
    <contour>
      <point x="30.0" y="305.0" type="curve" smooth="yes"/>
      <point x="30" y="614.0"/>
      <point x="222" y="776"/>
      <point x="431" y="801" type="curve"/>
      <point x="431" y="651" type="line"/>
      <point x="292" y="617"/>
      <point x="198" y="522"/>
      <point x="198" y="305" type="curve" smooth="yes"/>
      <point x="198.0" y="88.0"/>
      <point x="292.0" y="-7.0"/>
      <point x="431.0" y="-41.0" type="curve"/>
      <point x="431.0" y="-191.0" type="line"/>
      <point x="222.0" y="-166.0"/>
      <point x="30.0" y="-4.0"/>
    </contour>
  </outline>
</glyph>
<glyph name="parenright" format="2">
  <advance width="462"/>
  <unicode hex="0029"/>
  <outline>
    <contour>
      <point x="84" y="795" type="curve" smooth="yes"/>
      <point x="245" y="751"/>
      <point x="398" y="588"/>
      <point x="398" y="306" type="curve" smooth="yes"/>
      <point x="398" y="24"/>
      <point x="245" y="-139"/>
      <point x="84" y="-183" type="curve" smooth="yes"/>
      <point x="58" y="-190"/>
      <point x="30" y="-174"/>
      <point x="23" y="-148" type="curve" smooth="yes"/>
      <point x="16" y="-122"/>
      <point x="32" y="-94"/>
      <point x="58" y="-87" type="curve" smooth="yes"/>
      <point x="185" y="-51"/>
      <point x="298" y="82"/>
      <point x="298" y="306" type="curve" smooth="yes"/>
      <point x="298" y="530"/>
      <point x="185" y="663"/>
      <point x="58" y="699" type="curve" smooth="yes"/>
      <point x="32" y="706"/>
      <point x="16" y="734"/>
      <point x="23" y="760" type="curve" smooth="yes"/>
      <point x="30" y="786"/>
      <point x="58" y="802"/>
    </contour>
  </outline>
</glyph>
<glyph name="asterisk" format="2">
  <advance width="614"/>
  <unicode hex="002A"/>
  <outline>
    <contour>
      <point x="233.39759584062153" y="671.8324117889115" type="curve" smooth="yes"/>
      <point x="443.39759584062153" y="304.8324117889115" type="line" smooth="yes"/>
      <point x="456.8070982066337" y="281.39771003497583"/>
      <point x="448.267113542847" y="250.01190652539066"/>
      <point x="424.83241178891143" y="236.60240415937847" type="curve" smooth="yes"/>
      <point x="401.39771003497583" y="223.19290179336627"/>
      <point x="370.01190652539066" y="231.73288645715292"/>
      <point x="356.60240415937847" y="255.16758821108854" type="curve" smooth="yes"/>
      <point x="146.60240415937847" y="622.1675882110885" type="line" smooth="yes"/>
      <point x="133.19290179336627" y="645.6022899650242"/>
      <point x="141.73288645715292" y="676.9880934746094"/>
      <point x="165.16758821108854" y="690.3975958406215" type="curve" smooth="yes"/>
      <point x="188.60228996502417" y="703.8070982066337"/>
      <point x="219.98809347460934" y="695.2671135428471"/>
    </contour>
    <contour>
      <point x="443.39759584062153" y="622.1675882110885" type="curve" smooth="yes"/>
      <point x="233.39759584062153" y="255.1675882110885" type="line" smooth="yes"/>
      <point x="219.98809347460934" y="231.7328864571529"/>
      <point x="188.60228996502414" y="223.19290179336627"/>
      <point x="165.1675882110885" y="236.60240415937847" type="curve" smooth="yes"/>
      <point x="141.7328864571529" y="250.01190652539066"/>
      <point x="133.19290179336627" y="281.3977100349759"/>
      <point x="146.60240415937847" y="304.8324117889115" type="curve" smooth="yes"/>
      <point x="356.60240415937847" y="671.8324117889115" type="line" smooth="yes"/>
      <point x="370.01190652539066" y="695.2671135428471"/>
      <point x="401.3977100349759" y="703.8070982066338"/>
      <point x="424.8324117889115" y="690.3975958406215" type="curve" smooth="yes"/>
      <point x="448.2671135428471" y="676.9880934746093"/>
      <point x="456.8070982066337" y="645.6022899650242"/>
    </contour>
    <contour>
      <point x="505.0" y="414.0" type="curve" smooth="yes"/>
      <point x="84.99999999999999" y="414.0" type="line" smooth="yes"/>
      <point x="57.999999999999986" y="414.0"/>
      <point x="34.99999999999999" y="437.0"/>
      <point x="35.0" y="464.0" type="curve" smooth="yes"/>
      <point x="35.00000000000001" y="491.0"/>
      <point x="58.000000000000014" y="514.0"/>
      <point x="85.00000000000001" y="514.0" type="curve" smooth="yes"/>
      <point x="505.0" y="514.0" type="line" smooth="yes"/>
      <point x="532.0" y="514.0"/>
      <point x="555.0" y="491.0"/>
      <point x="555.0" y="464.0" type="curve" smooth="yes"/>
      <point x="555.0" y="437.0"/>
      <point x="532.0" y="414.0"/>
    </contour>
  </outline>
</glyph>
<glyph name="comma" format="2">
  <advance width="262"/>
  <unicode hex="002C"/>
  <outline>
    <contour>
      <point x="54.70087710542565" y="-88.99628114538666" type="curve" smooth="yes"/>
      <point x="77.18931823608739" y="-50.052883089850404"/>
      <point x="101.99469133469594" y="22.572604260624615"/>
      <point x="78.40925307570922" y="43.964048262961434" type="curve" smooth="yes"/>
      <point x="58.4098391377084" y="62.103051602078466"/>
      <point x="56.82504492384443" y="94.59133298628996"/>
      <point x="74.96404826296146" y="114.59074692429078" type="curve" smooth="yes"/>
      <point x="93.10305160207848" y="134.5901608622916"/>
      <point x="125.59133298628997" y="136.1749550761556"/>
      <point x="145.59074692429078" y="118.03595173703857" type="curve" smooth="yes"/>
      <point x="205.46176291762444" y="63.73433258029407"/>
      <point x="198.38544046961343" y="-40.14692500515539"/>
      <point x="141.29912289457434" y="-139.00371885461334" type="curve" smooth="yes"/>
      <point x="127.79711471308313" y="-162.3852452176835"/>
      <point x="96.37780750845678" y="-170.80113107606556"/>
      <point x="72.99628114538663" y="-157.29912289457434" type="curve" smooth="yes"/>
      <point x="49.61475478231648" y="-143.79711471308312"/>
      <point x="41.198868923934434" y="-112.37780750845681"/>
    </contour>
  </outline>
</glyph>
<glyph name="period" format="2">
  <advance width="260"/>
  <unicode hex="002E"/>
  <outline>
    <contour>
      <point x="80.0" y="40.00000000000001" type="curve" smooth="yes"/>
      <point x="80.0" y="84.0" type="line" smooth="yes"/>
      <point x="80.0" y="111.0"/>
      <point x="103.0" y="134.0"/>
      <point x="130.0" y="134.0" type="curve" smooth="yes"/>
      <point x="157.0" y="134.0"/>
      <point x="180.0" y="111.0"/>
      <point x="180.0" y="84.0" type="curve" smooth="yes"/>
      <point x="180.0" y="39.99999999999999" type="line" smooth="yes"/>
      <point x="180.0" y="12.999999999999993"/>
      <point x="156.99999999999997" y="-10.000000000000007"/>
      <point x="129.99999999999997" y="-10.0" type="curve" smooth="yes"/>
      <point x="102.99999999999997" y="-9.999999999999993"/>
      <point x="79.99999999999999" y="13.000000000000007"/>
    </contour>
  </outline>
</glyph>
<glyph name="slash" format="2">
  <advance width="420"/>
  <unicode hex="002F"/>
  <outline>
    <contour>
      <point x="387" y="674" type="curve" smooth="yes"/>
      <point x="112" y="-136" type="line" smooth="yes"/>
      <point x="104" y="-162"/>
      <point x="74" y="-176"/>
      <point x="49" y="-167" type="curve" smooth="yes"/>
      <point x="23" y="-159"/>
      <point x="9" y="-129"/>
      <point x="18" y="-104" type="curve" smooth="yes"/>
      <point x="293" y="706" type="line" smooth="yes"/>
      <point x="301" y="732"/>
      <point x="330" y="746"/>
      <point x="356" y="737" type="curve" smooth="yes"/>
      <point x="382" y="729"/>
      <point x="396" y="699"/>
    </contour>
  </outline>
</glyph>
<glyph name="two" format="2">
  <advance width="505"/>
  <unicode hex="0032"/>
  <outline>
    <contour>
      <point x="422" y="-5" type="curve" smooth="yes"/>
      <point x="90" y="-5" type="line" smooth="yes"/>
      <point x="62" y="-5"/>
      <point x="40" y="17"/>
      <point x="40" y="45" type="curve" smooth="yes"/>
      <point x="40" y="75" type="line" smooth="yes"/>
      <point x="40" y="88"/>
      <point x="45" y="100"/>
      <point x="53" y="109" type="curve" smooth="yes"/>
      <point x="254" y="326" type="line" smooth="yes"/>
      <point x="326" y="404"/>
      <point x="362" y="454"/>
      <point x="362" y="502" type="curve" smooth="yes"/>
      <point x="362" y="592"/>
      <point x="240" y="620"/>
      <point x="117" y="569" type="curve" smooth="yes"/>
      <point x="93" y="558"/>
      <point x="62" y="571"/>
      <point x="52" y="596" type="curve" smooth="yes"/>
      <point x="41" y="620"/>
      <point x="54" y="651"/>
      <point x="79" y="661" type="curve" smooth="yes"/>
      <point x="286" y="749"/>
      <point x="462" y="656"/>
      <point x="462" y="502" type="curve" smooth="yes"/>
      <point x="462" y="433"/>
      <point x="432" y="370"/>
      <point x="328" y="258" type="curve" smooth="yes"/>
      <point x="127" y="41" type="line"/>
      <point x="140" y="75" type="line"/>
      <point x="140" y="45" type="line"/>
      <point x="90" y="95" type="line"/>
      <point x="422" y="95" type="line" smooth="yes"/>
      <point x="449" y="95"/>
      <point x="472" y="72"/>
      <point x="472" y="45" type="curve" smooth="yes"/>
      <point x="472" y="18"/>
      <point x="449" y="-5"/>
    </contour>
  </outline>
</glyph>
<glyph name="three" format="2">
  <advance width="489"/>
  <unicode hex="0033"/>
  <outline>
    <contour>
      <point x="107" y="110" type="curve" smooth="yes"/>
      <point x="221" y="62"/>
      <point x="359" y="82"/>
      <point x="359" y="190" type="curve" smooth="yes"/>
      <point x="359" y="274"/>
      <point x="291" y="307"/>
      <point x="154" y="305" type="curve" smooth="yes"/>
      <point x="110" y="304"/>
      <point x="87" y="355"/>
      <point x="115" y="388" type="curve" smooth="yes"/>
      <point x="360" y="668" type="line"/>
      <point x="398" y="585" type="line"/>
      <point x="100" y="585" type="line" smooth="yes"/>
      <point x="73" y="585"/>
      <point x="50" y="608"/>
      <point x="50" y="635" type="curve" smooth="yes"/>
      <point x="50" y="662"/>
      <point x="73" y="685"/>
      <point x="100" y="685" type="curve" smooth="yes"/>
      <point x="398" y="685" type="line" smooth="yes"/>
      <point x="441" y="685"/>
      <point x="464" y="634"/>
      <point x="435" y="602" type="curve" smooth="yes"/>
      <point x="190" y="322" type="line"/>
      <point x="152" y="405" type="line"/>
      <point x="366" y="409"/>
      <point x="459" y="321"/>
      <point x="459" y="190" type="curve" smooth="yes"/>
      <point x="459" y="10"/>
      <point x="258" y="-62"/>
      <point x="68" y="18" type="curve" smooth="yes"/>
      <point x="44" y="28"/>
      <point x="31" y="59"/>
      <point x="42" y="83" type="curve" smooth="yes"/>
      <point x="52" y="108"/>
      <point x="82" y="121"/>
    </contour>
  </outline>
</glyph>
<glyph name="four" format="2">
  <advance width="525"/>
  <unicode hex="0034"/>
  <outline>
    <contour>
      <point x="472" y="161" type="curve" smooth="yes"/>
      <point x="62" y="161" type="line" smooth="yes"/>
      <point x="34" y="161"/>
      <point x="12" y="183"/>
      <point x="12" y="211" type="curve" smooth="yes"/>
      <point x="12" y="241" type="line" smooth="yes"/>
      <point x="12" y="250"/>
      <point x="15" y="260"/>
      <point x="20" y="268" type="curve" smooth="yes"/>
      <point x="270" y="662" type="line" smooth="yes"/>
      <point x="279" y="676"/>
      <point x="295" y="685"/>
      <point x="312" y="685" type="curve" smooth="yes"/>
      <point x="370" y="685" type="line" smooth="yes"/>
      <point x="398" y="685"/>
      <point x="420" y="663"/>
      <point x="420" y="635" type="curve" smooth="yes"/>
      <point x="420" y="40" type="line" smooth="yes"/>
      <point x="420" y="13"/>
      <point x="397" y="-10"/>
      <point x="370" y="-10" type="curve" smooth="yes"/>
      <point x="343" y="-10"/>
      <point x="320" y="13"/>
      <point x="320" y="40" type="curve" smooth="yes"/>
      <point x="320" y="635" type="line"/>
      <point x="370" y="585" type="line"/>
      <point x="312" y="585" type="line"/>
      <point x="354" y="608" type="line"/>
      <point x="104" y="214" type="line"/>
      <point x="112" y="241" type="line"/>
      <point x="112" y="211" type="line"/>
      <point x="62" y="261" type="line"/>
      <point x="472" y="261" type="line" smooth="yes"/>
      <point x="499" y="261"/>
      <point x="522" y="238"/>
      <point x="522" y="211" type="curve" smooth="yes"/>
      <point x="522" y="184"/>
      <point x="499" y="161"/>
    </contour>
  </outline>
</glyph>
<glyph name="seven" format="2">
  <advance width="498"/>
  <unicode hex="0037"/>
  <outline>
    <contour>
      <point x="80" y="685" type="curve" smooth="yes"/>
      <point x="418" y="685" type="line" smooth="yes"/>
      <point x="446" y="685"/>
      <point x="468" y="663"/>
      <point x="468" y="635" type="curve" smooth="yes"/>
      <point x="468" y="595" type="line" smooth="yes"/>
      <point x="468" y="588"/>
      <point x="467" y="581"/>
      <point x="464" y="575" type="curve" smooth="yes"/>
      <point x="223" y="20" type="line" smooth="yes"/>
      <point x="212" y="-5"/>
      <point x="182" y="-17"/>
      <point x="157" y="-6" type="curve" smooth="yes"/>
      <point x="132" y="5"/>
      <point x="120" y="35"/>
      <point x="131" y="60" type="curve" smooth="yes"/>
      <point x="372" y="615" type="line"/>
      <point x="368" y="595" type="line"/>
      <point x="368" y="635" type="line"/>
      <point x="418" y="585" type="line"/>
      <point x="80" y="585" type="line" smooth="yes"/>
      <point x="53" y="585"/>
      <point x="30" y="608"/>
      <point x="30" y="635" type="curve" smooth="yes"/>
      <point x="30" y="662"/>
      <point x="53" y="685"/>
    </contour>
  </outline>
</glyph>
<glyph name="nine" format="2">
  <advance width="534"/>
  <unicode hex="0039"/>
  <outline>
    <contour>
      <point x="473" y="530" type="curve" smooth="yes"/>
      <point x="507" y="362"/>
      <point x="403" y="234"/>
      <point x="252" y="234" type="curve" smooth="yes"/>
      <point x="125" y="234"/>
      <point x="28" y="327"/>
      <point x="28" y="458" type="curve" smooth="yes"/>
      <point x="28" y="591"/>
      <point x="119" y="692"/>
      <point x="257" y="692" type="curve" smooth="yes"/>
      <point x="374" y="692"/>
      <point x="499" y="604"/>
      <point x="499" y="365" type="curve" smooth="yes"/>
      <point x="499" y="6"/>
      <point x="249" y="-65"/>
      <point x="89" y="20" type="curve" smooth="yes"/>
      <point x="66" y="33"/>
      <point x="56" y="64"/>
      <point x="69" y="88" type="curve" smooth="yes"/>
      <point x="82" y="111"/>
      <point x="113" y="121"/>
      <point x="137" y="108" type="curve" smooth="yes"/>
      <point x="250" y="47"/>
      <point x="399" y="109"/>
      <point x="399" y="365" type="curve" smooth="yes"/>
      <point x="399" y="525"/>
      <point x="335" y="592"/>
      <point x="257" y="592" type="curve" smooth="yes"/>
      <point x="175" y="592"/>
      <point x="128" y="537"/>
      <point x="128" y="458" type="curve" smooth="yes"/>
      <point x="128" y="383"/>
      <point x="179" y="334"/>
      <point x="252" y="334" type="curve" smooth="yes"/>
      <point x="343" y="334"/>
      <point x="395" y="408"/>
      <point x="375" y="510" type="curve" smooth="yes"/>
      <point x="370" y="537"/>
      <point x="388" y="564"/>
      <point x="414" y="569" type="curve" smooth="yes"/>
      <point x="441" y="574"/>
      <point x="468" y="556"/>
    </contour>
  </outline>
</glyph>
<glyph name="colon" format="2">
  <advance width="260"/>
  <unicode hex="003A"/>
  <outline>
    <contour>
      <point x="132.7253004752585" y="-9.467956768242672" type="curve" smooth="yes"/>
      <point x="42.135559641754305" y="3.8540639425667735"/>
      <point x="42.135559641754234" y="120.14593605743319"/>
      <point x="132.72530047525848" y="133.46795676824266" type="curve" smooth="yes"/>
      <point x="159.43799713010952" y="137.3962945116031"/>
      <point x="185.53961902488223" y="117.98739617959257"/>
      <point x="189.46795676824266" y="91.27469952474152" type="curve" smooth="yes"/>
      <point x="193.3962945116031" y="64.56200286989048"/>
      <point x="173.98739617959257" y="38.460380975117765"/>
      <point x="147.27469952474152" y="34.532043231757335" type="curve" smooth="yes"/>
      <point x="144.71042117305674" y="34.154943474156646"/>
      <point x="144.71042117305672" y="89.84505652584338"/>
      <point x="147.2746995247415" y="89.46795676824267" type="curve" smooth="yes"/>
      <point x="173.98739617959254" y="85.53961902488227"/>
      <point x="193.3962945116031" y="59.43799713010955"/>
      <point x="189.4679567682427" y="32.72530047525851" type="curve" smooth="yes"/>
      <point x="185.53961902488228" y="6.012603820407463"/>
      <point x="159.43799713010955" y="-13.396294511603077"/>
    </contour>
    <contour>
      <point x="132.7253004752585" y="350.5320432317573" type="curve" smooth="yes"/>
      <point x="42.135559641754305" y="363.85406394256665"/>
      <point x="42.135559641754234" y="480.14593605743335"/>
      <point x="132.72530047525848" y="493.4679567682427" type="curve" smooth="yes"/>
      <point x="159.43799713010952" y="497.3962945116031"/>
      <point x="185.53961902488223" y="477.98739617959257"/>
      <point x="189.46795676824266" y="451.27469952474155" type="curve" smooth="yes"/>
      <point x="193.3962945116031" y="424.56200286989053"/>
      <point x="173.98739617959257" y="398.46038097511774"/>
      <point x="147.27469952474152" y="394.5320432317573" type="curve" smooth="yes"/>
      <point x="144.71042117305674" y="394.15494347415654"/>
      <point x="144.71042117305672" y="449.84505652584346"/>
      <point x="147.2746995247415" y="449.4679567682427" type="curve" smooth="yes"/>
      <point x="173.98739617959254" y="445.53961902488226"/>
      <point x="193.3962945116031" y="419.4379971301096"/>
      <point x="189.4679567682427" y="392.7253004752585" type="curve" smooth="yes"/>
      <point x="185.53961902488228" y="366.01260382040743"/>
      <point x="159.43799713010955" y="346.6037054883969"/>
    </contour>
  </outline>
</glyph>
<glyph name="semicolon" format="2">
  <advance width="291"/>
  <unicode hex="003B"/>
  <outline>
    <contour>
      <point x="160.7253004752585" y="350.5320432317573" type="curve" smooth="yes"/>
      <point x="70.13555964175431" y="363.85406394256665"/>
      <point x="70.13555964175426" y="480.14593605743335"/>
      <point x="160.72530047525848" y="493.4679567682427" type="curve" smooth="yes"/>
      <point x="187.43799713010952" y="497.3962945116031"/>
      <point x="213.53961902488223" y="477.98739617959257"/>
      <point x="217.46795676824266" y="451.27469952474155" type="curve" smooth="yes"/>
      <point x="221.3962945116031" y="424.56200286989053"/>
      <point x="201.98739617959257" y="398.46038097511774"/>
      <point x="175.27469952474152" y="394.5320432317573" type="curve" smooth="yes"/>
      <point x="172.71042117305674" y="394.15494347415654"/>
      <point x="172.71042117305674" y="449.84505652584346"/>
      <point x="175.2746995247415" y="449.4679567682427" type="curve" smooth="yes"/>
      <point x="201.98739617959254" y="445.53961902488226"/>
      <point x="221.3962945116031" y="419.4379971301096"/>
      <point x="217.4679567682427" y="392.7253004752585" type="curve" smooth="yes"/>
      <point x="213.53961902488228" y="366.01260382040743"/>
      <point x="187.43799713010955" y="346.6037054883969"/>
    </contour>
    <contour>
      <point x="96.70087710542565" y="-88.99628114538666" type="curve" smooth="yes"/>
      <point x="111.392461517176" y="-63.55475692016051"/>
      <point x="142.13778383227708" y="26.321354474830404"/>
      <point x="119.5629102239778" y="33.12964969003177" type="curve" smooth="yes"/>
      <point x="93.71292105659495" y="40.92567816908376"/>
      <point x="78.33362121097977" y="69.58710060863936"/>
      <point x="86.12964969003175" y="95.4370897760222" type="curve" smooth="yes"/>
      <point x="93.92567816908374" y="121.28707894340505"/>
      <point x="122.58710060863935" y="136.6663787890202"/>
      <point x="148.4370897760222" y="128.87035030996822" type="curve" smooth="yes"/>
      <point x="244.13366345896537" y="100.009478881779"/>
      <point x="245.57784545014053" y="-31.155199307169458"/>
      <point x="183.29912289457434" y="-139.00371885461334" type="curve" smooth="yes"/>
      <point x="169.79711471308312" y="-162.3852452176835"/>
      <point x="138.37780750845678" y="-170.80113107606556"/>
      <point x="114.99628114538665" y="-157.29912289457434" type="curve" smooth="yes"/>
      <point x="91.6147547823165" y="-143.79711471308312"/>
      <point x="83.19886892393444" y="-112.37780750845681"/>
    </contour>
  </outline>
</glyph>
<glyph name="equal" format="2">
  <advance width="490"/>
  <unicode hex="003D"/>
  <outline>
    <contour>
      <point x="40" y="351" type="line"/>
      <point x="450" y="351" type="line"/>
      <point x="450" y="506" type="line"/>
      <point x="40" y="506" type="line"/>
    </contour>
    <contour>
      <point x="40" y="111" type="line"/>
      <point x="450" y="111" type="line"/>
      <point x="450" y="266" type="line"/>
      <point x="40" y="266" type="line"/>
    </contour>
  </outline>
</glyph>
<glyph name="greater" format="2">
  <advance width="447"/>
  <unicode hex="003E"/>
  <outline>
    <contour>
      <point x="407" y="222" type="line"/>
      <point x="407" y="389" type="line"/>
      <point x="50" y="229" type="line"/>
      <point x="50" y="53" type="line"/>
    </contour>
    <contour>
      <point x="407" y="394" type="line"/>
      <point x="50" y="563" type="line"/>
      <point x="50" y="390" type="line"/>
      <point x="407" y="232" type="line"/>
    </contour>
  </outline>
</glyph>
<glyph name="question" format="2">
  <advance width="524"/>
  <unicode hex="003F"/>
  <outline>
    <contour>
      <point x="166.0" y="40.00000000000001" type="curve" smooth="yes"/>
      <point x="166.0" y="84.0" type="line" smooth="yes"/>
      <point x="166.0" y="111.0"/>
      <point x="189.0" y="134.0"/>
      <point x="216.0" y="134.0" type="curve" smooth="yes"/>
      <point x="243.0" y="134.0"/>
      <point x="266.0" y="111.0"/>
      <point x="266.0" y="84.0" type="curve" smooth="yes"/>
      <point x="266.0" y="39.99999999999999" type="line" smooth="yes"/>
      <point x="266.0" y="12.999999999999993"/>
      <point x="243.0" y="-10.000000000000007"/>
      <point x="216.0" y="-10.0" type="curve" smooth="yes"/>
      <point x="189.0" y="-9.999999999999993"/>
      <point x="166.0" y="13.000000000000007"/>
    </contour>
    <contour>
      <point x="80.62340308030733" y="702.0928138847235" type="curve" smooth="yes"/>
      <point x="282.4427629502967" y="786.9340734479036"/>
      <point x="449.0" y="699.9747311232412"/>
      <point x="449.0" y="565.0" type="curve" smooth="yes"/>
      <point x="449.0" y="406.1716187547896"/>
      <point x="242.4537288725157" y="410.25210410944766"/>
      <point x="266.09814588627086" y="287.4536802638161" type="curve" smooth="yes"/>
      <point x="271.20313322873153" y="260.94068148522985"/>
      <point x="252.96667904240232" y="234.00684145618985"/>
      <point x="226.45368026381607" y="228.90185411372914" type="curve" smooth="yes"/>
      <point x="199.94068148522982" y="223.79686677126844"/>
      <point x="173.00684145618985" y="242.03332095759762"/>
      <point x="167.90185411372917" y="268.5463197361839" type="curve" smooth="yes"/>
      <point x="128.31083622927883" y="474.1641868134904"/>
      <point x="349.0" y="470.14973369784116"/>
      <point x="349.0" y="565.0" type="curve" smooth="yes"/>
      <point x="349.0" y="637.4585157907046"/>
      <point x="227.71933005436549" y="655.4525388980054"/>
      <point x="119.37659691969267" y="609.9071861152765" type="curve" smooth="yes"/>
      <point x="94.486477421942" y="599.4438237786425"/>
      <point x="64.3705484519106" y="611.7332835825566"/>
      <point x="53.907186115276545" y="636.6234030803073" type="curve" smooth="yes"/>
      <point x="43.44382377864249" y="661.513522578058"/>
      <point x="55.73328358255665" y="691.6294515480894"/>
    </contour>
  </outline>
</glyph>
<glyph name="A" format="2">
  <advance width="631"/>
  <unicode hex="0041"/>
  <outline>
    <contour>
      <point x="28" y="57" type="curve" smooth="yes"/>
      <point x="242" y="657" type="line" smooth="yes"/>
      <point x="249" y="677"/>
      <point x="268" y="690"/>
      <point x="289" y="690" type="curve" smooth="yes"/>
      <point x="343" y="690" type="line" smooth="yes"/>
      <point x="364" y="690"/>
      <point x="383" y="677"/>
      <point x="390" y="657" type="curve" smooth="yes"/>
      <point x="603" y="57" type="line" smooth="yes"/>
      <point x="612" y="31"/>
      <point x="598" y="2"/>
      <point x="573" y="-7" type="curve" smooth="yes"/>
      <point x="547" y="-16"/>
      <point x="518" y="-2"/>
      <point x="509" y="23" type="curve" smooth="yes"/>
      <point x="296" y="623" type="line"/>
      <point x="343" y="590" type="line"/>
      <point x="289" y="590" type="line"/>
      <point x="336" y="623" type="line"/>
      <point x="122" y="23" type="line" smooth="yes"/>
      <point x="113" y="-2"/>
      <point x="84" y="-16"/>
      <point x="58" y="-7" type="curve" smooth="yes"/>
      <point x="33" y="2"/>
      <point x="19" y="31"/>
    </contour>
    <contour>
      <point x="493" y="168" type="curve" smooth="yes"/>
      <point x="140" y="168" type="line" smooth="yes"/>
      <point x="113" y="168"/>
      <point x="90" y="191"/>
      <point x="90" y="218" type="curve" smooth="yes"/>
      <point x="90" y="245"/>
      <point x="113" y="268"/>
      <point x="140" y="268" type="curve" smooth="yes"/>
      <point x="493" y="268" type="line" smooth="yes"/>
      <point x="520" y="268"/>
      <point x="543" y="245"/>
      <point x="543" y="218" type="curve" smooth="yes"/>
      <point x="543" y="191"/>
      <point x="520" y="168"/>
    </contour>
  </outline>
</glyph>
<glyph name="C" format="2">
  <advance width="595"/>
  <unicode hex="0043"/>
  <outline>
    <contour>
      <point x="485.66489208923656" y="555.3216011858093" type="curve" smooth="yes"/>
      <point x="308.1891500505059" y="654.2009431788163"/>
      <point x="140.0" y="553.8160130276137"/>
      <point x="140.0" y="340.0" type="curve" smooth="yes"/>
      <point x="140.0" y="125.01655042760528"/>
      <point x="304.10899560092867" y="24.177349782593605"/>
      <point x="485.23678382334" y="127.43711690004302" type="curve" smooth="yes"/>
      <point x="508.6928269493632" y="140.80925363543943"/>
      <point x="540.0649801646466" y="132.21925930268327"/>
      <point x="553.4371169000431" y="108.76321617666002" type="curve" smooth="yes"/>
      <point x="566.8092536354395" y="85.30717305063679"/>
      <point x="558.2192593026833" y="53.935019835353394"/>
      <point x="534.7632161766601" y="40.56288309995698" type="curve" smooth="yes"/>
      <point x="287.9002003891549" y="-100.1721072088076"/>
      <point x="40.0" y="46.99436443912949"/>
      <point x="40.0" y="340.0" type="curve" smooth="yes"/>
      <point x="40.0" y="632.1439950996206"/>
      <point x="291.8440447845963" y="777.7805625559123"/>
      <point x="534.3351079107634" y="642.6783988141907" type="curve" smooth="yes"/>
      <point x="557.9214432704265" y="629.5374405423785"/>
      <point x="566.8193570860029" y="598.2512274488996"/>
      <point x="553.6783988141907" y="574.6648920892366" type="curve" smooth="yes"/>
      <point x="540.5374405423785" y="551.0785567295735"/>
      <point x="509.25122744889956" y="542.1806429139971"/>
    </contour>
  </outline>
</glyph>
<glyph name="D" format="2">
  <advance width="660"/>
  <unicode hex="0044"/>
  <outline>
    <contour>
      <point x="175.0" y="44.99999999999999" type="line"/>
      <point x="125.00000000000001" y="95.0" type="line"/>
      <point x="303.0" y="95.0" type="line" smooth="yes"/>
      <point x="437.9440489124611" y="95.0"/>
      <point x="520.0" y="197.72607152504136"/>
      <point x="520.0" y="341.0" type="curve" smooth="yes"/>
      <point x="520.0" y="483.2985351884253"/>
      <point x="435.9769834230203" y="585.0"/>
      <point x="302.0" y="585.0" type="curve" smooth="yes"/>
      <point x="125.0" y="585.0" type="line"/>
      <point x="175.0" y="635.0" type="line"/>
    </contour>
    <contour>
      <point x="75.0" y="45.00000000000001" type="curve" smooth="yes"/>
      <point x="75.0" y="635.0" type="line" smooth="yes"/>
      <point x="75.0" y="662.6142374915397"/>
      <point x="97.38576250846033" y="685.0"/>
      <point x="125.0" y="685.0" type="curve" smooth="yes"/>
      <point x="302.0" y="685.0" type="line" smooth="yes"/>
      <point x="489.90772551807027" y="685.0"/>
      <point x="620.0" y="540.5790128173295"/>
      <point x="620.0" y="341.0" type="curve" smooth="yes"/>
      <point x="620.0" y="140.35418136206377"/>
      <point x="491.98036406596316" y="-5.0"/>
      <point x="303.0" y="-5.0" type="curve" smooth="yes"/>
      <point x="124.99999999999999" y="-5.0" type="line" smooth="yes"/>
      <point x="97.38576250846032" y="-4.999999999999993"/>
      <point x="75.0" y="17.385762508460335"/>
    </contour>
  </outline>
</glyph>
<glyph name="E" format="2">
  <advance width="523"/>
  <unicode hex="0045"/>
  <outline>
    <contour>
      <point x="423" y="-5" type="curve" smooth="yes"/>
      <point x="125" y="-5" type="line" smooth="yes"/>
      <point x="97" y="-5"/>
      <point x="75" y="17"/>
      <point x="75" y="45" type="curve" smooth="yes"/>
      <point x="75" y="635" type="line" smooth="yes"/>
      <point x="75" y="663"/>
      <point x="97" y="685"/>
      <point x="125" y="685" type="curve" smooth="yes"/>
      <point x="423" y="685" type="line" smooth="yes"/>
      <point x="450" y="685"/>
      <point x="473" y="662"/>
      <point x="473" y="635" type="curve" smooth="yes"/>
      <point x="473" y="608"/>
      <point x="450" y="585"/>
      <point x="423" y="585" type="curve" smooth="yes"/>
      <point x="125" y="585" type="line"/>
      <point x="175" y="635" type="line"/>
      <point x="175" y="45" type="line"/>
      <point x="125" y="95" type="line"/>
      <point x="423" y="95" type="line" smooth="yes"/>
      <point x="450" y="95"/>
      <point x="473" y="72"/>
      <point x="473" y="45" type="curve" smooth="yes"/>
      <point x="473" y="18"/>
      <point x="450" y="-5"/>
    </contour>
    <contour>
      <point x="125" y="400" type="curve" smooth="yes"/>
      <point x="403" y="400" type="line" smooth="yes"/>
      <point x="430" y="400"/>
      <point x="453" y="377"/>
      <point x="453" y="350" type="curve" smooth="yes"/>
      <point x="453" y="323"/>
      <point x="430" y="300"/>
      <point x="403" y="300" type="curve" smooth="yes"/>
      <point x="125" y="300" type="line" smooth="yes"/>
      <point x="98" y="300"/>
      <point x="75" y="323"/>
      <point x="75" y="350" type="curve" smooth="yes"/>
      <point x="75" y="377"/>
      <point x="98" y="400"/>
    </contour>
  </outline>
</glyph>
<glyph name="J" format="2">
  <advance width="448"/>
  <unicode hex="004A"/>
  <outline>
    <contour>
      <point x="91" y="115" type="curve" smooth="yes"/>
      <point x="208" y="60"/>
      <point x="283" y="93"/>
      <point x="283" y="204" type="curve" smooth="yes"/>
      <point x="283" y="640" type="line" smooth="yes"/>
      <point x="283" y="667"/>
      <point x="306" y="690"/>
      <point x="333" y="690" type="curve" smooth="yes"/>
      <point x="360" y="690"/>
      <point x="383" y="667"/>
      <point x="383" y="640" type="curve" smooth="yes"/>
      <point x="383" y="204" type="line" smooth="yes"/>
      <point x="383" y="24"/>
      <point x="238" y="-64"/>
      <point x="49" y="25" type="curve" smooth="yes"/>
      <point x="24" y="36"/>
      <point x="13" y="67"/>
      <point x="25" y="91" type="curve" smooth="yes"/>
      <point x="36" y="116"/>
      <point x="67" y="127"/>
    </contour>
  </outline>
</glyph>
<glyph name="Q" format="2">
  <advance width="732"/>
  <unicode hex="0051"/>
  <outline>
    <contour>
      <point x="368" y="85" type="curve" smooth="yes"/>
      <point x="503" y="85"/>
      <point x="592" y="191"/>
      <point x="592" y="341" type="curve" smooth="yes"/>
      <point x="592" y="489"/>
      <point x="503" y="595"/>
      <point x="368" y="595" type="curve" smooth="yes"/>
      <point x="232" y="595"/>
      <point x="140" y="490"/>
      <point x="140" y="341" type="curve" smooth="yes"/>
      <point x="140" y="191"/>
      <point x="232" y="85"/>
    </contour>
    <contour>
      <point x="541" y="-91" type="curve" smooth="yes"/>
      <point x="361" y="204" type="line" smooth="yes"/>
      <point x="347" y="227"/>
      <point x="355" y="259"/>
      <point x="378" y="273" type="curve" smooth="yes"/>
      <point x="401" y="287"/>
      <point x="433" y="279"/>
      <point x="447" y="256" type="curve" smooth="yes"/>
      <point x="627" y="-39" type="line" smooth="yes"/>
      <point x="641" y="-62"/>
      <point x="633" y="-94"/>
      <point x="610" y="-108" type="curve" smooth="yes"/>
      <point x="587" y="-122"/>
      <point x="555" y="-114"/>
    </contour>
    <contour>
      <point x="368" y="-15" type="curve" smooth="yes"/>
      <point x="179" y="-15"/>
      <point x="40" y="133"/>
      <point x="40" y="341" type="curve" smooth="yes"/>
      <point x="40" y="548"/>
      <point x="179" y="695"/>
      <point x="368" y="695" type="curve" smooth="yes"/>
      <point x="557" y="695"/>
      <point x="692" y="547"/>
      <point x="692" y="341" type="curve" smooth="yes"/>
      <point x="692" y="133"/>
      <point x="556" y="-15"/>
    </contour>
  </outline>
</glyph>
<glyph name="R" format="2">
  <advance width="595"/>
  <unicode hex="0052"/>
  <outline>
    <contour>
      <point x="75" y="40" type="curve" smooth="yes"/>
      <point x="75" y="635" type="line" smooth="yes"/>
      <point x="75" y="663"/>
      <point x="97" y="685"/>
      <point x="125" y="685" type="curve" smooth="yes"/>
      <point x="290" y="685" type="line" smooth="yes"/>
      <point x="427" y="685"/>
      <point x="515" y="595"/>
      <point x="515" y="476" type="curve" smooth="yes"/>
      <point x="515" y="352"/>
      <point x="424" y="268"/>
      <point x="302" y="268" type="curve" smooth="yes"/>
      <point x="165" y="268" type="line" smooth="yes"/>
      <point x="138" y="268"/>
      <point x="115" y="291"/>
      <point x="115" y="318" type="curve" smooth="yes"/>
      <point x="115" y="345"/>
      <point x="138" y="368"/>
      <point x="165" y="368" type="curve" smooth="yes"/>
      <point x="302" y="368" type="line" smooth="yes"/>
      <point x="369" y="368"/>
      <point x="415" y="408"/>
      <point x="415" y="476" type="curve" smooth="yes"/>
      <point x="415" y="543"/>
      <point x="367" y="585"/>
      <point x="290" y="585" type="curve" smooth="yes"/>
      <point x="125" y="585" type="line"/>
      <point x="175" y="635" type="line"/>
      <point x="175" y="40" type="line" smooth="yes"/>
      <point x="175" y="13"/>
      <point x="152" y="-10"/>
      <point x="125" y="-10" type="curve" smooth="yes"/>
      <point x="98" y="-10"/>
      <point x="75" y="13"/>
    </contour>
    <contour>
      <point x="391" y="346" type="curve" smooth="yes"/>
      <point x="563" y="66" type="line" smooth="yes"/>
      <point x="577" y="43"/>
      <point x="569" y="12"/>
      <point x="546" y="-3" type="curve" smooth="yes"/>
      <point x="523" y="-17"/>
      <point x="492" y="-9"/>
      <point x="477" y="14" type="curve" smooth="yes"/>
      <point x="305" y="294" type="line" smooth="yes"/>
      <point x="291" y="317"/>
      <point x="299" y="348"/>
      <point x="322" y="363" type="curve" smooth="yes"/>
      <point x="345" y="377"/>
      <point x="376" y="369"/>
    </contour>
  </outline>
</glyph>
<glyph name="V" format="2">
  <advance width="641"/>
  <unicode hex="0056"/>
  <outline>
    <contour>
      <point x="613" y="623" type="curve" smooth="yes"/>
      <point x="394" y="23" type="line" smooth="yes"/>
      <point x="387" y="3"/>
      <point x="368" y="-10"/>
      <point x="347" y="-10" type="curve" smooth="yes"/>
      <point x="293" y="-10" type="line" smooth="yes"/>
      <point x="272" y="-10"/>
      <point x="253" y="3"/>
      <point x="246" y="23" type="curve" smooth="yes"/>
      <point x="28" y="623" type="line" smooth="yes"/>
      <point x="19" y="648"/>
      <point x="32" y="678"/>
      <point x="58" y="687" type="curve" smooth="yes"/>
      <point x="83" y="696"/>
      <point x="113" y="682"/>
      <point x="122" y="657" type="curve" smooth="yes"/>
      <point x="340" y="57" type="line"/>
      <point x="293" y="90" type="line"/>
      <point x="347" y="90" type="line"/>
      <point x="300" y="57" type="line"/>
      <point x="519" y="657" type="line" smooth="yes"/>
      <point x="528" y="683"/>
      <point x="558" y="696"/>
      <point x="583" y="687" type="curve" smooth="yes"/>
      <point x="608" y="678"/>
      <point x="622" y="648"/>
    </contour>
  </outline>
</glyph>
<glyph name="X" format="2">
  <advance width="605"/>
  <unicode hex="0058"/>
  <outline>
    <contour>
      <point x="136" y="669" type="curve" smooth="yes"/>
      <point x="564" y="69" type="line" smooth="yes"/>
      <point x="580" y="47"/>
      <point x="575" y="15"/>
      <point x="553" y="-1" type="curve" smooth="yes"/>
      <point x="531" y="-16"/>
      <point x="499" y="-11"/>
      <point x="483" y="11" type="curve" smooth="yes"/>
      <point x="55" y="611" type="line" smooth="yes"/>
      <point x="39" y="633"/>
      <point x="45" y="665"/>
      <point x="67" y="681" type="curve" smooth="yes"/>
      <point x="89" y="696"/>
      <point x="121" y="691"/>
    </contour>
    <contour>
      <point x="556" y="611" type="curve" smooth="yes"/>
      <point x="122" y="11" type="line" smooth="yes"/>
      <point x="106" y="-11"/>
      <point x="74" y="-16"/>
      <point x="52" y="-1" type="curve" smooth="yes"/>
      <point x="31" y="15"/>
      <point x="25" y="47"/>
      <point x="41" y="69" type="curve" smooth="yes"/>
      <point x="475" y="669" type="line" smooth="yes"/>
      <point x="491" y="691"/>
      <point x="523" y="696"/>
      <point x="545" y="681" type="curve" smooth="yes"/>
      <point x="567" y="665"/>
      <point x="572" y="633"/>
    </contour>
  </outline>
</glyph>
<glyph name="Z" format="2">
  <advance width="595"/>
  <unicode hex="005A"/>
  <outline>
    <contour>
      <point x="105" y="685" type="curve" smooth="yes"/>
      <point x="490" y="685" type="line" smooth="yes"/>
      <point x="518" y="685"/>
      <point x="540" y="663"/>
      <point x="540" y="635" type="curve" smooth="yes"/>
      <point x="540" y="605" type="line" smooth="yes"/>
      <point x="540" y="594"/>
      <point x="537" y="584"/>
      <point x="530" y="576" type="curve" smooth="yes"/>
      <point x="145" y="46" type="line"/>
      <point x="155" y="75" type="line"/>
      <point x="155" y="45" type="line"/>
      <point x="105" y="95" type="line"/>
      <point x="490" y="95" type="line" smooth="yes"/>
      <point x="517" y="95"/>
      <point x="540" y="72"/>
      <point x="540" y="45" type="curve" smooth="yes"/>
      <point x="540" y="18"/>
      <point x="517" y="-5"/>
      <point x="490" y="-5" type="curve" smooth="yes"/>
      <point x="105" y="-5" type="line" smooth="yes"/>
      <point x="77" y="-5"/>
      <point x="55" y="17"/>
      <point x="55" y="45" type="curve"/>
      <point x="55" y="75" type="line" smooth="yes"/>
      <point x="55" y="86"/>
      <point x="58" y="96"/>
      <point x="65" y="104" type="curve" smooth="yes"/>
      <point x="450" y="634" type="line"/>
      <point x="440" y="605" type="line"/>
      <point x="440" y="635" type="line"/>
      <point x="490" y="585" type="line"/>
      <point x="105" y="585" type="line" smooth="yes"/>
      <point x="78" y="585"/>
      <point x="55" y="608"/>
      <point x="55" y="635" type="curve" smooth="yes"/>
      <point x="55" y="662"/>
      <point x="78" y="685"/>
    </contour>
  </outline>
</glyph>
<glyph name="backslash" format="2">
  <advance width="490"/>
  <unicode hex="005C"/>
  <outline>
    <contour>
      <point x="485" y="-160" type="line"/>
      <point x="185" y="770" type="line"/>
      <point x="20" y="770" type="line"/>
      <point x="320" y="-160" type="line"/>
    </contour>
  </outline>
</glyph>
<glyph name="a" format="2">
  <advance width="584"/>
  <unicode hex="0061"/>
  <outline>
    <contour>
      <point x="280.0" y="-16.0" type="curve" smooth="yes"/>
      <point x="139.52245062651602" y="-16.0"/>
      <point x="34.0" y="94.96759937117982"/>
      <point x="34.0" y="249.0" type="curve" smooth="yes"/>
      <point x="34.0" y="403.1115422294858"/>
      <point x="139.68316582454474" y="513.0"/>
      <point x="279.0" y="513.0" type="curve" smooth="yes"/>
      <point x="417.2220603004425" y="513.0"/>
      <point x="524.0" y="403.2656922996008"/>
      <point x="524.0" y="249.0" type="curve" smooth="yes"/>
      <point x="524.0" y="94.81140199939934"/>
      <point x="419.386492592543" y="-16.0"/>
    </contour>
    <contour>
      <point x="424.0" y="40.00000000000001" type="curve" smooth="yes"/>
      <point x="424.0" y="458.0" type="line" smooth="yes"/>
      <point x="424.0" y="485.0"/>
      <point x="447.0" y="508.0"/>
      <point x="474.0" y="508.0" type="curve" smooth="yes"/>
      <point x="501.0" y="508.0"/>
      <point x="524.0" y="485.0"/>
      <point x="524.0" y="458.0" type="curve" smooth="yes"/>
      <point x="524.0" y="39.99999999999999" type="line" smooth="yes"/>
      <point x="524.0" y="12.999999999999993"/>
      <point x="501.0" y="-10.000000000000007"/>
      <point x="474.0" y="-10.0" type="curve" smooth="yes"/>
      <point x="447.0" y="-9.999999999999993"/>
      <point x="424.0" y="13.000000000000007"/>
    </contour>
    <contour>
      <point x="280.0" y="84.0" type="curve" smooth="yes"/>
      <point x="366.532055201403" y="84.0"/>
      <point x="424.0" y="153.27869999844805"/>
      <point x="424.0" y="249.0" type="curve" smooth="yes"/>
      <point x="424.0" y="344.6734393515511"/>
      <point x="364.72340165899" y="413.0"/>
      <point x="279.0" y="413.0" type="curve" smooth="yes"/>
      <point x="192.42465712716063" y="413.0"/>
      <point x="134.0" y="344.7691845938488"/>
      <point x="134.0" y="249.0" type="curve" smooth="yes"/>
      <point x="134.0" y="153.08701785568212"/>
      <point x="192.52736028438204" y="84.0"/>
    </contour>
  </outline>
</glyph>
<glyph name="c" format="2">
  <advance width="466"/>
  <unicode hex="0063"/>
  <outline>
    <contour>
      <point x="418.8692056222021" y="24.62347856592657" type="curve" smooth="yes"/>
      <point x="236.2396258982885" y="-80.08414714245058"/>
      <point x="34.0" y="28.84450433130367"/>
      <point x="34.0" y="248.0" type="curve" smooth="yes"/>
      <point x="34.0" y="465.82905061189757"/>
      <point x="234.98971596405895" y="577.1028240951032"/>
      <point x="418.7449486031457" y="472.4475260357558" type="curve" smooth="yes"/>
      <point x="442.20661266245384" y="459.0852537900571"/>
      <point x="450.80979828145445" y="427.7167154561624"/>
      <point x="437.44752603575574" y="404.25505139685424" type="curve" smooth="yes"/>
      <point x="424.08525379005704" y="380.7933873375461"/>
      <point x="392.71671545616243" y="372.1902017185455"/>
      <point x="369.2550513968543" y="385.5524739642442" type="curve" smooth="yes"/>
      <point x="251.1263182024312" y="452.83109022067066"/>
      <point x="134.0" y="388.0333989523293"/>
      <point x="134.0" y="248.0" type="curve" smooth="yes"/>
      <point x="134.0" y="107.18429155631684"/>
      <point x="251.78437067472856" y="44.09790517764703"/>
      <point x="369.1307943777979" y="111.37652143407342" type="curve" smooth="yes"/>
      <point x="392.55411595219755" y="124.80589247006253"/>
      <point x="423.9471503980843" y="116.29252719660172"/>
      <point x="437.3765214340734" y="92.86920562220206" type="curve" smooth="yes"/>
      <point x="450.80589247006253" y="69.4458840478024"/>
      <point x="442.2925271966018" y="38.052849601915675"/>
    </contour>
  </outline>
</glyph>
<glyph name="f" format="2">
  <advance width="375"/>
  <unicode hex="0066"/>
  <outline>
    <contour>
      <point x="62.0" y="503.0" type="curve" smooth="yes"/>
      <point x="312.0" y="503.0" type="line" smooth="yes"/>
      <point x="339.0" y="503.0"/>
      <point x="362.0" y="480.0"/>
      <point x="362.0" y="453.0" type="curve" smooth="yes"/>
      <point x="362.0" y="426.0"/>
      <point x="339.0" y="403.0"/>
      <point x="312.0" y="403.0" type="curve" smooth="yes"/>
      <point x="62.0" y="403.0" type="line" smooth="yes"/>
      <point x="35.0" y="403.0"/>
      <point x="11.999999999999995" y="426.0"/>
      <point x="12.0" y="453.0" type="curve" smooth="yes"/>
      <point x="12.000000000000005" y="480.0"/>
      <point x="35.0" y="503.0"/>
    </contour>
    <contour>
      <point x="320.4390028500743" y="631.3793611923692" type="curve" smooth="yes"/>
      <point x="266.1591449652916" y="658.8242331565849"/>
      <point x="218.0" y="641.3292881030287"/>
      <point x="218.0" y="584.0" type="curve" smooth="yes"/>
      <point x="218.0" y="39.999999999999986" type="line" smooth="yes"/>
      <point x="218.0" y="12.999999999999986"/>
      <point x="194.99999999999997" y="-10.000000000000007"/>
      <point x="167.99999999999997" y="-10.0" type="curve" smooth="yes"/>
      <point x="140.99999999999997" y="-9.999999999999993"/>
      <point x="117.99999999999999" y="13.000000000000014"/>
      <point x="118.0" y="40.000000000000014" type="curve" smooth="yes"/>
      <point x="118.0" y="584.0" type="line" smooth="yes"/>
      <point x="118.0" y="714.2915347423124"/>
      <point x="242.199863191779" y="782.9942458651207"/>
      <point x="365.5609971499257" y="720.6206388076308" type="curve" smooth="yes"/>
      <point x="389.65614210604633" y="708.437700346671"/>
      <point x="399.80357726859063" y="677.5341478061949"/>
      <point x="387.62063880763077" y="653.4390028500743" type="curve" smooth="yes"/>
      <point x="375.4377003466709" y="629.3438578939537"/>
      <point x="344.53414780619494" y="619.1964227314094"/>
    </contour>
  </outline>
</glyph>
<glyph name="r" format="2">
  <advance width="401"/>
  <unicode hex="0072"/>
  <outline>
    <contour>
      <point x="321.2018713263495" y="406.61185173354653" type="curve" smooth="yes"/>
      <point x="220.61575536407418" y="422.4938700433794"/>
      <point x="161.0" y="350.24181716953746"/>
      <point x="161.0" y="261.0" type="curve" smooth="yes"/>
      <point x="161.0" y="234.0"/>
      <point x="137.99999999999997" y="211.0"/>
      <point x="110.99999999999997" y="211.0" type="curve" smooth="yes"/>
      <point x="83.99999999999997" y="211.0"/>
      <point x="60.99999999999999" y="234.0"/>
      <point x="61.0" y="261.0" type="curve" smooth="yes"/>
      <point x="61.0" y="407.724869159561"/>
      <point x="171.42179309550127" y="531.500201252477"/>
      <point x="336.7981286736505" y="505.38814826645347" type="curve" smooth="yes"/>
      <point x="363.46772873753537" y="501.17715878268217"/>
      <point x="382.59913775022477" y="474.87147139023426"/>
      <point x="378.38814826645347" y="448.2018713263494" type="curve" smooth="yes"/>
      <point x="374.17715878268217" y="421.5322712624646"/>
      <point x="347.8714713902343" y="402.40086224977523"/>
    </contour>
    <contour>
      <point x="61.0" y="40.00000000000001" type="curve" smooth="yes"/>
      <point x="61.0" y="458.0" type="line" smooth="yes"/>
      <point x="61.00000000000001" y="485.0"/>
      <point x="84.0" y="508.0"/>
      <point x="111.0" y="508.0" type="curve" smooth="yes"/>
      <point x="138.0" y="508.0"/>
      <point x="161.0" y="485.0"/>
      <point x="161.0" y="458.0" type="curve" smooth="yes"/>
      <point x="161.0" y="39.99999999999999" type="line" smooth="yes"/>
      <point x="161.0" y="12.999999999999993"/>
      <point x="137.99999999999997" y="-10.000000000000007"/>
      <point x="110.99999999999997" y="-10.0" type="curve" smooth="yes"/>
      <point x="83.99999999999997" y="-9.999999999999993"/>
      <point x="60.99999999999999" y="13.000000000000007"/>
    </contour>
  </outline>
</glyph>
<glyph name="t" format="2">
  <advance width="346"/>
  <unicode hex="0074"/>
  <outline>
    <contour>
      <point x="118.0" y="40.00000000000001" type="curve" smooth="yes"/>
      <point x="118.0" y="588.0" type="line" smooth="yes"/>
      <point x="118.0" y="615.0"/>
      <point x="141.0" y="638.0"/>
      <point x="168.0" y="638.0" type="curve" smooth="yes"/>
      <point x="195.0" y="638.0"/>
      <point x="218.0" y="615.0"/>
      <point x="218.0" y="588.0" type="curve" smooth="yes"/>
      <point x="218.0" y="39.99999999999999" type="line" smooth="yes"/>
      <point x="218.0" y="12.999999999999993"/>
      <point x="194.99999999999997" y="-10.000000000000007"/>
      <point x="167.99999999999997" y="-10.0" type="curve" smooth="yes"/>
      <point x="140.99999999999997" y="-9.999999999999993"/>
      <point x="117.99999999999999" y="13.000000000000007"/>
    </contour>
    <contour>
      <point x="62.0" y="503.0" type="curve" smooth="yes"/>
      <point x="284.0" y="503.0" type="line" smooth="yes"/>
      <point x="311.0" y="503.0"/>
      <point x="334.0" y="480.0"/>
      <point x="334.0" y="453.0" type="curve" smooth="yes"/>
      <point x="334.0" y="426.0"/>
      <point x="311.0" y="403.0"/>
      <point x="284.0" y="403.0" type="curve" smooth="yes"/>
      <point x="62.0" y="403.0" type="line" smooth="yes"/>
      <point x="35.0" y="403.0"/>
      <point x="11.999999999999995" y="426.0"/>
      <point x="12.0" y="453.0" type="curve" smooth="yes"/>
      <point x="12.000000000000005" y="480.0"/>
      <point x="35.0" y="503.0"/>
    </contour>
  </outline>
</glyph>
<glyph name="v" format="2">
  <advance width="500"/>
  <unicode hex="0076"/>
  <outline>
    <contour>
      <point x="115.58348221664258" y="476.16532918974343" type="curve" smooth="yes"/>
      <point x="278.58348221664255" y="58.16532918974343" type="line"/>
      <point x="232.0" y="90.0" type="line"/>
      <point x="269.0" y="90.0" type="line"/>
      <point x="222.37886622735303" y="58.068477682222024" type="line"/>
      <point x="384.378866227353" y="476.068477682222" type="line" smooth="yes"/>
      <point x="394.1358441757529" y="501.24388991945136"/>
      <point x="423.89306544499266" y="514.3781117210469"/>
      <point x="449.068477682222" y="504.621133772647" type="curve" smooth="yes"/>
      <point x="474.24388991945136" y="494.8641558242471"/>
      <point x="487.3781117210469" y="465.10693455500734"/>
      <point x="477.621133772647" y="439.931522317778" type="curve" smooth="yes"/>
      <point x="315.621133772647" y="21.93152231777798" type="line" smooth="yes"/>
      <point x="308.1618243554114" y="2.684662216515722"/>
      <point x="289.6417761042896" y="-10.000000000000002"/>
      <point x="269.0" y="-10.0" type="curve" smooth="yes"/>
      <point x="232.0" y="-10.0" type="line" smooth="yes"/>
      <point x="211.3961760329513" y="-9.999999999999998"/>
      <point x="192.9020226819367" y="2.6387134629796165"/>
      <point x="185.41651778335742" y="21.834670810256565" type="curve" smooth="yes"/>
      <point x="22.416517783357428" y="439.83467081025657" type="line" smooth="yes"/>
      <point x="12.607240020895999" y="464.98975120724356"/>
      <point x="25.679590413269608" y="494.7742044541812"/>
      <point x="50.83467081025661" y="504.5834822166426" type="curve" smooth="yes"/>
      <point x="75.98975120724361" y="514.3927599791041"/>
      <point x="105.77420445418115" y="501.3204095867304"/>
    </contour>
  </outline>
</glyph>
<glyph name="w" format="2">
  <advance width="749"/>
  <unicode hex="0077"/>
  <outline>
    <contour>
      <point x="129.2385447461325" y="474.3865765267684" type="curve" smooth="yes"/>
      <point x="274.2385447461325" y="56.38657652676842" type="line"/>
      <point x="227.0" y="90.0" type="line"/>
      <point x="242.0" y="90.0" type="line"/>
      <point x="194.3537109993369" y="55.16018286384735" type="line"/>
      <point x="327.3537109993369" y="473.16018286384735" type="line" smooth="yes"/>
      <point x="342.16800835251775" y="519.7194031167014"/>
      <point x="408.1002093329997" y="519.5759737132416"/>
      <point x="422.711796878801" y="472.95274017015055" type="curve" smooth="yes"/>
      <point x="553.711796878801" y="54.95274017015055" type="line"/>
      <point x="506.0" y="90.0" type="line"/>
      <point x="523.0" y="90.0" type="line"/>
      <point x="475.7265455617454" y="56.28559195959009" type="line"/>
      <point x="619.7265455617454" y="474.2855919595901" type="line" smooth="yes"/>
      <point x="628.5207652199241" y="499.81325735624756"/>
      <point x="657.7579265629325" y="514.0676740964333"/>
      <point x="683.2855919595901" y="505.2734544382546" type="curve" smooth="yes"/>
      <point x="708.8132573562476" y="496.47923478007596"/>
      <point x="723.0676740964333" y="467.2420734370674"/>
      <point x="714.2734544382546" y="441.7144080404099" type="curve" smooth="yes"/>
      <point x="570.2734544382546" y="23.71440804040991" type="line" smooth="yes"/>
      <point x="563.3236184717223" y="3.540578637559257"/>
      <point x="544.3373759571562" y="-10.000000000000002"/>
      <point x="523.0" y="-10.0" type="curve" smooth="yes"/>
      <point x="506.0" y="-10.0" type="line" smooth="yes"/>
      <point x="484.1458343578254" y="-9.999999999999996"/>
      <point x="464.82379633085634" y="4.193229588347275"/>
      <point x="458.288203121199" y="25.04725982984945" type="curve" smooth="yes"/>
      <point x="327.288203121199" y="443.04725982984945" type="line"/>
      <point x="422.6462890006631" y="442.83981713615265" type="line"/>
      <point x="289.6462890006631" y="24.83981713615265" type="line" smooth="yes"/>
      <point x="283.04436640637425" y="4.090917554101942"/>
      <point x="263.7738883942902" y="-10.000000000000004"/>
      <point x="242.0" y="-10.0" type="curve" smooth="yes"/>
      <point x="227.0" y="-10.0" type="line" smooth="yes"/>
      <point x="205.70188192989417" y="-9.999999999999998"/>
      <point x="186.74152008650626" y="3.4915814039694446"/>
      <point x="179.7614552538675" y="23.61342347323158" type="curve" smooth="yes"/>
      <point x="34.7614552538675" y="441.6134234732316" type="line" smooth="yes"/>
      <point x="25.912703929412558" y="467.12223763614315"/>
      <point x="40.10460931032004" y="496.3897934216775"/>
      <point x="65.61342347323159" y="505.23854474613245" type="curve" smooth="yes"/>
      <point x="91.12223763614314" y="514.0872960705874"/>
      <point x="120.38979342167757" y="499.89539068967997"/>
    </contour>
  </outline>
</glyph>
<glyph name="y" format="2">
  <advance width="498"/>
  <unicode hex="0079"/>
  <outline>
    <contour>
      <point x="114.2970637051177" y="479.1701681546111" type="curve" smooth="yes"/>
      <point x="293.2970637051177" y="96.1701681546111" type="line" smooth="yes"/>
      <point x="304.7289545086077" y="71.70975375384756"/>
      <point x="293.6305825553747" y="41.134827098372334"/>
      <point x="269.17016815461113" y="29.70293629488234" type="curve" smooth="yes"/>
      <point x="244.70975375384756" y="18.271045491392343"/>
      <point x="214.1348270983723" y="29.369417444625363"/>
      <point x="202.7029362948823" y="53.8298318453889" type="curve" smooth="yes"/>
      <point x="23.702936294882313" y="436.8298318453889" type="line" smooth="yes"/>
      <point x="12.271045491392346" y="461.2902462461525"/>
      <point x="23.369417444625395" y="491.8651729016277"/>
      <point x="47.82983184538896" y="503.2970637051177" type="curve" smooth="yes"/>
      <point x="72.29024624615252" y="514.7289545086077"/>
      <point x="102.86517290162773" y="503.63058255537464"/>
    </contour>
    <contour>
      <point x="475.6063155161744" y="437.5045374524225" type="curve" smooth="yes"/>
      <point x="213.60631551617436" y="-145.49546254757752" type="line" smooth="yes"/>
      <point x="202.5387657404825" y="-170.1228729263117"/>
      <point x="172.13194783115665" y="-181.67386529186624"/>
      <point x="147.50453745242248" y="-170.60631551617436" type="curve" smooth="yes"/>
      <point x="122.87712707368831" y="-159.5387657404825"/>
      <point x="111.32613470813378" y="-129.13194783115665"/>
      <point x="122.39368448382564" y="-104.50453745242248" type="curve" smooth="yes"/>
      <point x="384.3936844838256" y="478.4954625475775" type="line" smooth="yes"/>
      <point x="395.4612342595175" y="503.1228729263117"/>
      <point x="425.86805216884335" y="514.6738652918663"/>
      <point x="450.4954625475775" y="503.6063155161744" type="curve" smooth="yes"/>
      <point x="475.1228729263117" y="492.5387657404825"/>
      <point x="486.67386529186626" y="462.13194783115665"/>
    </contour>
  </outline>
</glyph>
<glyph name="z" format="2">
  <advance width="471"/>
  <unicode hex="007A"/>
  <outline>
    <contour>
      <point x="87.0" y="503.0" type="curve" smooth="yes"/>
      <point x="385.0" y="503.0" type="line" smooth="yes"/>
      <point x="412.61423749153965" y="503.0"/>
      <point x="435.0" y="480.61423749153965"/>
      <point x="435.0" y="453.0" type="curve" smooth="yes"/>
      <point x="435.0" y="424.0" type="line" smooth="yes"/>
      <point x="435.0" y="412.1212499750347"/>
      <point x="430.77086726108416" y="400.63052391849936"/>
      <point x="423.07011507015164" y="391.58601631169944" type="curve" smooth="yes"/>
      <point x="125.07011507015163" y="41.58601631169946" type="line"/>
      <point x="137.0" y="73.99999999999999" type="line"/>
      <point x="137.0" y="44.999999999999986" type="line"/>
      <point x="87.0" y="95.0" type="line"/>
      <point x="385.0" y="95.0" type="line" smooth="yes"/>
      <point x="412.0" y="95.0"/>
      <point x="435.0" y="72.0"/>
      <point x="435.0" y="45.0" type="curve" smooth="yes"/>
      <point x="435.0" y="18.0"/>
      <point x="412.0" y="-5.0000000000000036"/>
      <point x="385.0" y="-5.0" type="curve" smooth="yes"/>
      <point x="87.0" y="-5.0" type="line" smooth="yes"/>
      <point x="59.38576250846033" y="-4.9999999999999964"/>
      <point x="36.99999999999999" y="17.38576250846035"/>
      <point x="37.0" y="45.000000000000014" type="curve"/>
      <point x="37.0" y="74.00000000000001" type="line"/>
      <point x="37.00000000000001" y="85.87875002496507"/>
      <point x="41.229132738916036" y="97.3694760815008"/>
      <point x="48.92988492984837" y="106.41398368830053" type="curve" smooth="yes"/>
      <point x="346.92988492984836" y="456.41398368830056" type="line"/>
      <point x="335.0" y="424.0" type="line"/>
      <point x="335.0" y="453.0" type="line"/>
      <point x="385.0" y="403.0" type="line"/>
      <point x="87.0" y="403.0" type="line" smooth="yes"/>
      <point x="60.0" y="403.0"/>
      <point x="36.99999999999999" y="426.0"/>
      <point x="37.0" y="453.0" type="curve" smooth="yes"/>
      <point x="37.00000000000001" y="480.0"/>
      <point x="60.0" y="503.0"/>
    </contour>
  </outline>
</glyph>
<glyph name="bar" format="2">
  <advance width="315"/>
  <unicode hex="007C"/>
  <outline>
    <contour>
      <point x="240" y="-160" type="line"/>
      <point x="240" y="770" type="line"/>
      <point x="75" y="770" type="line"/>
      <point x="75" y="-160" type="line"/>
    </contour>
  </outline>
</glyph>
<glyph name="braceright" format="2">
  <advance width="461"/>
  <unicode hex="007D"/>
  <outline>
    <contour>
      <point x="64.4283767846764" y="764.5134144262438" type="curve" smooth="yes"/>
      <point x="221.83404593750862" y="816.1001463334745"/>
      <point x="340.0" y="744.6599879791517"/>
      <point x="340.0" y="619.0" type="curve" smooth="yes"/>
      <point x="340.0" y="532.9841737578312"/>
      <point x="282.0" y="446.9653325559265"/>
      <point x="282.0" y="389.0" type="curve" smooth="yes"/>
      <point x="282.0" y="362.261698471335"/>
      <point x="294.3577816764292" y="354.0"/>
      <point x="335.0" y="354.0" type="curve" smooth="yes"/>
      <point x="381.0" y="354.0" type="line" smooth="yes"/>
      <point x="408.0" y="354.0"/>
      <point x="431.0" y="331.0"/>
      <point x="431.0" y="304.0" type="curve" smooth="yes"/>
      <point x="431.0" y="277.0"/>
      <point x="408.0" y="254.0"/>
      <point x="381.0" y="254.0" type="curve" smooth="yes"/>
      <point x="335.0" y="254.0" type="line" smooth="yes"/>
      <point x="225.32827675525172" y="254.0"/>
      <point x="182.0" y="316.847550496876"/>
      <point x="182.0" y="389.0" type="curve" smooth="yes"/>
      <point x="182.0" y="470.3432815988356"/>
      <point x="240.0" y="557.7050211312413"/>
      <point x="240.0" y="619.0" type="curve" smooth="yes"/>
      <point x="240.0" y="681.6529979059108"/>
      <point x="174.05274690799092" y="695.2072899772354"/>
      <point x="95.5716232153236" y="669.4865855737562" type="curve" smooth="yes"/>
      <point x="69.91437942515195" y="661.0779090374814"/>
      <point x="40.89526211003097" y="675.7711329945047"/>
      <point x="32.4865855737562" y="701.4283767846763" type="curve" smooth="yes"/>
      <point x="24.077909037481437" y="727.0856205748479"/>
      <point x="38.771132994504754" y="756.104737889969"/>
    </contour>
    <contour>
      <point x="95.93081928555276" y="-60.60581262548054" type="curve" smooth="yes"/>
      <point x="174.64779892518402" y="-87.06530157997841"/>
      <point x="240.0" y="-73.50277349079492"/>
      <point x="240.0" y="-9.999999999999995" type="curve" smooth="yes"/>
      <point x="240.0" y="50.39570936960184"/>
      <point x="182.0" y="138.57423181557672"/>
      <point x="182.0" y="220.0" type="curve" smooth="yes"/>
      <point x="182.0" y="292.1885257278756"/>
      <point x="225.27344089362936" y="354.0"/>
      <point x="335.0" y="354.0" type="curve" smooth="yes"/>
      <point x="381.0" y="354.0" type="line" smooth="yes"/>
      <point x="408.0" y="354.0"/>
      <point x="431.0" y="331.0"/>
      <point x="431.0" y="304.0" type="curve" smooth="yes"/>
      <point x="431.0" y="277.0"/>
      <point x="408.0" y="254.0"/>
      <point x="381.0" y="254.0" type="curve" smooth="yes"/>
      <point x="335.0" y="254.0" type="line" smooth="yes"/>
      <point x="294.68059754218143" y="254.0"/>
      <point x="282.0" y="246.5259226696175"/>
      <point x="282.0" y="220.0" type="curve" smooth="yes"/>
      <point x="282.0" y="162.0926182852963"/>
      <point x="340.0" y="74.92238598918442"/>
      <point x="340.0" y="-10.000000000000005" type="curve" smooth="yes"/>
      <point x="340.0" y="-136.85583714361888"/>
      <point x="221.3175621737248" y="-208.25078618436066"/>
      <point x="64.06918071444724" y="-155.39418737451945" type="curve" smooth="yes"/>
      <point x="38.476319532206716" y="-146.79154496032098"/>
      <point x="24.003170211282047" y="-117.6620418966878"/>
      <point x="32.60581262548052" y="-92.06918071444727" type="curve" smooth="yes"/>
      <point x="41.20845503967899" y="-66.47631953220674"/>
      <point x="70.33795810331223" y="-52.00317021128207"/>
    </contour>
  </outline>
</glyph>
<glyph name="exclamdown" format="2">
  <advance width="260"/>
  <unicode hex="00A1"/>
  <outline>
    <contour>
      <point x="178.0" y="295.0" type="curve" smooth="yes"/>
      <point x="178.0" y="-60.000000000000014" type="line" smooth="yes"/>
      <point x="178.0" y="-87.00000000000001"/>
      <point x="154.99999999999997" y="-110.0"/>
      <point x="127.99999999999997" y="-110.0" type="curve" smooth="yes"/>
      <point x="100.99999999999997" y="-110.0"/>
      <point x="77.99999999999999" y="-86.99999999999999"/>
      <point x="78.0" y="-59.999999999999986" type="curve" smooth="yes"/>
      <point x="78.0" y="295.0" type="line" smooth="yes"/>
      <point x="78.00000000000001" y="322.0"/>
      <point x="101.00000000000003" y="345.0"/>
      <point x="128.00000000000003" y="345.0" type="curve" smooth="yes"/>
      <point x="155.00000000000003" y="345.0"/>
      <point x="178.0" y="322.0"/>
    </contour>
    <contour>
      <point x="128.7253004752585" y="446.5320432317573" type="curve" smooth="yes"/>
      <point x="38.135559641754305" y="459.85406394256665"/>
      <point x="38.135559641754234" y="576.1459360574332"/>
      <point x="128.72530047525848" y="589.4679567682426" type="curve" smooth="yes"/>
      <point x="155.43799713010952" y="593.3962945116031"/>
      <point x="181.53961902488223" y="573.9873961795926"/>
      <point x="185.46795676824266" y="547.2746995247415" type="curve" smooth="yes"/>
      <point x="189.3962945116031" y="520.5620028698905"/>
      <point x="169.98739617959257" y="494.46038097511774"/>
      <point x="143.27469952474152" y="490.5320432317573" type="curve" smooth="yes"/>
      <point x="140.71042117305674" y="490.15494347415654"/>
      <point x="140.71042117305672" y="545.8450565258431"/>
      <point x="143.2746995247415" y="545.4679567682426" type="curve" smooth="yes"/>
      <point x="169.98739617959254" y="541.5396190248822"/>
      <point x="189.3962945116031" y="515.4379971301096"/>
      <point x="185.4679567682427" y="488.7253004752585" type="curve" smooth="yes"/>
      <point x="181.53961902488228" y="462.01260382040743"/>
      <point x="155.43799713010955" y="442.6037054883969"/>
    </contour>
  </outline>
</glyph>
<glyph name="cent" format="2">
  <advance width="475"/>
  <unicode hex="00A2"/>
  <outline>
    <contour>
      <point x="399.3741878925034" y="109.79884855519762" type="curve" smooth="yes"/>
      <point x="238.0849290930472" y="33.530284316695045"/>
      <point x="42.0" y="125.2040459014116"/>
      <point x="42.0" y="314.0" type="curve" smooth="yes"/>
      <point x="42.0" y="502.79595409858837"/>
      <point x="238.08492909304726" y="594.4697156833048"/>
      <point x="399.37418789250347" y="518.2011514448023" type="curve" smooth="yes"/>
      <point x="423.78280967269677" y="506.6590899828505"/>
      <point x="434.7432129067542" y="476.03443388768983"/>
      <point x="423.20115144480235" y="451.62581210749653" type="curve" smooth="yes"/>
      <point x="411.6590899828505" y="427.21719032730323"/>
      <point x="381.03443388768983" y="416.2567870932458"/>
      <point x="356.62581210749653" y="427.79884855519765" type="curve" smooth="yes"/>
      <point x="260.03318359083084" y="473.4744325824582"/>
      <point x="142.0" y="427.06578996912026"/>
      <point x="142.0" y="314.0" type="curve" smooth="yes"/>
      <point x="142.0" y="200.9342100308798"/>
      <point x="260.03318359083084" y="154.5255674175419"/>
      <point x="356.6258121074966" y="200.20115144480238" type="curve" smooth="yes"/>
      <point x="381.0344338876899" y="211.74321290675422"/>
      <point x="411.6590899828505" y="200.78280967269671"/>
      <point x="423.20115144480235" y="176.37418789250341" type="curve" smooth="yes"/>
      <point x="434.7432129067542" y="151.9655661123101"/>
      <point x="423.7828096726967" y="121.34091001714947"/>
    </contour>
    <contour>
      <point x="192.12012895161598" y="-6.5361200660844485" type="curve" smooth="yes"/>
      <point x="202.12012895161598" y="137.46387993391556" type="line" smooth="yes"/>
      <point x="203.9906241159304" y="164.39901030004293"/>
      <point x="228.5287495677882" y="185.75036621269842"/>
      <point x="255.46387993391556" y="183.87987104838402" type="curve" smooth="yes"/>
      <point x="282.3990103000429" y="182.0093758840696"/>
      <point x="303.7503662126984" y="157.4712504322118"/>
      <point x="301.879871048384" y="130.53612006608444" type="curve" smooth="yes"/>
      <point x="291.879871048384" y="-13.463879933915551" type="line" smooth="yes"/>
      <point x="290.00937588406964" y="-40.39901030004292"/>
      <point x="265.4712504322118" y="-61.7503662126984"/>
      <point x="238.53612006608444" y="-59.879871048384004" type="curve" smooth="yes"/>
      <point x="211.60098969995707" y="-58.009375884069605"/>
      <point x="190.24963378730158" y="-33.47125043221181"/>
    </contour>
    <contour>
      <point x="222.07698233972937" y="498.7735009811261" type="curve" smooth="yes"/>
      <point x="230.07698233972937" y="642.7735009811262" type="line" smooth="yes"/>
      <point x="231.5746728695375" y="669.7319305176724"/>
      <point x="255.81507144457998" y="691.4207081900787"/>
      <point x="282.7735009811261" y="689.9230176602706" type="curve" smooth="yes"/>
      <point x="309.73193051767225" y="688.4253271304625"/>
      <point x="331.4207081900787" y="664.18492855542"/>
      <point x="329.9230176602706" y="637.2264990188738" type="curve" smooth="yes"/>
      <point x="321.9230176602706" y="493.2264990188739" type="line" smooth="yes"/>
      <point x="320.4253271304625" y="466.26806948232775"/>
      <point x="296.18492855541996" y="444.5792918099213"/>
      <point x="269.2264990188738" y="446.0769823397294" type="curve" smooth="yes"/>
      <point x="242.2680694823277" y="447.5746728695375"/>
      <point x="220.57929180992124" y="471.81507144458"/>
    </contour>
  </outline>
</glyph>
<glyph name="section" format="2">
  <advance width="505"/>
  <unicode hex="00A7"/>
  <outline>
    <contour>
      <point x="363.0" y="290.0" type="curve" smooth="yes"/>
      <point x="363.0" y="333.0922003051446"/>
      <point x="314.7371739736665" y="357.0"/>
      <point x="252.0" y="357.0" type="curve" smooth="yes"/>
      <point x="190.7417094202155" y="357.0"/>
      <point x="141.0" y="332.6013191626889"/>
      <point x="141.0" y="293.0" type="curve" smooth="yes"/>
      <point x="141.0" y="254.67314029293715"/>
      <point x="191.77207760318677" y="232.0"/>
      <point x="252.0" y="232.0" type="curve" smooth="yes"/>
      <point x="311.33346302502787" y="232.0"/>
      <point x="363.0" y="252.24234171134583"/>
    </contour>
    <contour>
      <point x="363.0" y="290.0" type="curve" smooth="yes"/>
      <point x="363.0" y="397.93117695140023"/>
      <point x="77.0" y="364.40276594809677"/>
      <point x="77.0" y="546.0" type="curve" smooth="yes"/>
      <point x="77.0" y="661.0079548949008"/>
      <point x="200.1393618895444" y="738.4531870070659"/>
      <point x="406.63091726902485" y="670.4939409328064" type="curve" smooth="yes"/>
      <point x="432.27764537274027" y="662.053245607533"/>
      <point x="446.9346362580798" y="633.0158108346906"/>
      <point x="438.49394093280637" y="607.3690827309752" type="curve" smooth="yes"/>
      <point x="430.0532456075329" y="581.7223546272597"/>
      <point x="401.01581083469057" y="567.0653637419202"/>
      <point x="375.36908273097515" y="575.5060590671936" type="curve" smooth="yes"/>
      <point x="273.6828328916347" y="608.9724197738119"/>
      <point x="177.0" y="602.6353796573541"/>
      <point x="177.0" y="546.0" type="curve" smooth="yes"/>
      <point x="177.0" y="450.06141637058414"/>
      <point x="463.0" y="494.2976554466621"/>
      <point x="463.0" y="290.0" type="curve" smooth="yes"/>
      <point x="463.0" y="263.0"/>
      <point x="440.0" y="240.0"/>
      <point x="413.0" y="240.0" type="curve" smooth="yes"/>
      <point x="386.0" y="240.0"/>
      <point x="363.0" y="263.0"/>
    </contour>
    <contour>
      <point x="463.0" y="290.0" type="curve" smooth="yes"/>
      <point x="463.0" y="204.0232459313959"/>
      <point x="387.10632782209217" y="132.0"/>
      <point x="252.0" y="132.0" type="curve" smooth="yes"/>
      <point x="117.23093193923337" y="132.0"/>
      <point x="41.0" y="207.23786577951213"/>
      <point x="41.0" y="293.0" type="curve" smooth="yes"/>
      <point x="41.0" y="379.7745302412858"/>
      <point x="117.77064853301108" y="457.0"/>
      <point x="252.0" y="457.0" type="curve" smooth="yes"/>
      <point x="385.22480945741415" y="457.0"/>
      <point x="463.0" y="381.5079499303449"/>
    </contour>
    <contour>
      <point x="141.0" y="293.0" type="curve" smooth="yes"/>
      <point x="141.0" y="191.39068829834173"/>
      <point x="439.0" y="228.0044242645423"/>
      <point x="439.0" y="51.999999999999986" type="curve" smooth="yes"/>
      <point x="439.0" y="-50.31138410582793"/>
      <point x="303.6572118249224" y="-139.90261816566422"/>
      <point x="88.40468942045332" y="-64.16561954186955" type="curve" smooth="yes"/>
      <point x="62.93525486784377" y="-55.204151828914334"/>
      <point x="48.87291274517526" y="-25.874123973062876"/>
      <point x="57.83438045813047" y="-0.4046894204533231" type="curve" smooth="yes"/>
      <point x="66.79584817108568" y="25.06474513215623"/>
      <point x="96.12587602693712" y="39.127087254824744"/>
      <point x="121.59531057954668" y="30.16561954186954" type="curve" smooth="yes"/>
      <point x="220.29807281203765" y="-4.56313013252545"/>
      <point x="339.0" y="5.085724124062925"/>
      <point x="339.0" y="52.000000000000014" type="curve" smooth="yes"/>
      <point x="339.0" y="139.55329712520918"/>
      <point x="41.0" y="88.18139592749293"/>
      <point x="41.0" y="293.0" type="curve" smooth="yes"/>
      <point x="41.000000000000014" y="320.0"/>
      <point x="64.00000000000003" y="343.0"/>
      <point x="91.00000000000003" y="343.0" type="curve" smooth="yes"/>
      <point x="118.00000000000003" y="343.0"/>
      <point x="141.0" y="320.0"/>
    </contour>
  </outline>
</glyph>
<glyph name="dieresis" format="2">
  <advance width="577"/>
  <unicode hex="00A8"/>
  <outline>
    <contour>
      <point x="183" y="607" type="curve" smooth="yes"/>
      <point x="92" y="620"/>
      <point x="92" y="736"/>
      <point x="183" y="749" type="curve" smooth="yes"/>
      <point x="209" y="753"/>
      <point x="236" y="734"/>
      <point x="239" y="707" type="curve" smooth="yes"/>
      <point x="243" y="681"/>
      <point x="224" y="654"/>
      <point x="197" y="651" type="curve" smooth="yes"/>
      <point x="195" y="650"/>
      <point x="195" y="706"/>
      <point x="197" y="705" type="curve" smooth="yes"/>
      <point x="224" y="702"/>
      <point x="243" y="675"/>
      <point x="239" y="649" type="curve" smooth="yes"/>
      <point x="236" y="622"/>
      <point x="209" y="603"/>
    </contour>
    <contour>
      <point x="403" y="607" type="curve" smooth="yes"/>
      <point x="312" y="620"/>
      <point x="312" y="736"/>
      <point x="403" y="749" type="curve" smooth="yes"/>
      <point x="429" y="753"/>
      <point x="456" y="734"/>
      <point x="459" y="707" type="curve" smooth="yes"/>
      <point x="463" y="681"/>
      <point x="444" y="654"/>
      <point x="417" y="651" type="curve" smooth="yes"/>
      <point x="415" y="650"/>
      <point x="415" y="706"/>
      <point x="417" y="705" type="curve" smooth="yes"/>
      <point x="444" y="702"/>
      <point x="463" y="675"/>
      <point x="459" y="649" type="curve" smooth="yes"/>
      <point x="456" y="622"/>
      <point x="429" y="603"/>
    </contour>
  </outline>
</glyph>
<glyph name="guillemetleft" format="2">
  <advance width="727"/>
  <unicode hex="00AB"/>
  <outline>
    <contour>
      <point x="348.86507475035967" y="419.4692718579834" type="curve" smooth="yes"/>
      <point x="111.8650747503597" y="223.46927185798341" type="line"/>
      <point x="112.05697014250369" y="300.37122183723926" type="line"/>
      <point x="349.0569701425037" y="102.37122183723926" type="line" smooth="yes"/>
      <point x="369.77742993461294" y="85.0604579602873"/>
      <point x="372.6819857141913" y="52.66348964960556"/>
      <point x="355.3712218372393" y="31.943029857496356" type="curve" smooth="yes"/>
      <point x="338.06045796028735" y="11.222570065387153"/>
      <point x="305.66348964960554" y="8.318014285808765"/>
      <point x="284.9430298574963" y="25.62877816276074" type="curve" smooth="yes"/>
      <point x="47.94302985749631" y="223.62877816276074" type="line" smooth="yes"/>
      <point x="23.941154342462728" y="243.68097796013055"/>
      <point x="24.03327572982347" y="280.59856229440436"/>
      <point x="48.134925249640304" y="300.5307281420166" type="curve" smooth="yes"/>
      <point x="285.13492524964033" y="496.5307281420166" type="line" smooth="yes"/>
      <point x="305.94151844632927" y="513.7378685072108"/>
      <point x="338.32358777682236" y="510.6716679470486"/>
      <point x="355.5307281420166" y="489.86507475035967" type="curve" smooth="yes"/>
      <point x="372.7378685072108" y="469.05848155367073"/>
      <point x="369.6716679470486" y="436.67641222317764"/>
    </contour>
    <contour>
      <point x="668.8650747503597" y="419.4692718579834" type="curve" smooth="yes"/>
      <point x="431.86507475035967" y="223.46927185798341" type="line"/>
      <point x="432.0569701425037" y="300.37122183723926" type="line"/>
      <point x="669.0569701425037" y="102.37122183723926" type="line" smooth="yes"/>
      <point x="689.7774299346129" y="85.0604579602873"/>
      <point x="692.6819857141913" y="52.66348964960556"/>
      <point x="675.3712218372393" y="31.943029857496356" type="curve" smooth="yes"/>
      <point x="658.0604579602873" y="11.222570065387153"/>
      <point x="625.6634896496055" y="8.318014285808765"/>
      <point x="604.9430298574963" y="25.62877816276074" type="curve" smooth="yes"/>
      <point x="367.9430298574963" y="223.62877816276074" type="line" smooth="yes"/>
      <point x="343.941154342463" y="243.6809779601303"/>
      <point x="344.0332757298238" y="280.5985622944046"/>
      <point x="368.13492524964033" y="300.5307281420166" type="curve" smooth="yes"/>
      <point x="605.1349252496403" y="496.5307281420166" type="line" smooth="yes"/>
      <point x="625.9415184463293" y="513.7378685072108"/>
      <point x="658.3235877768224" y="510.6716679470486"/>
      <point x="675.5307281420166" y="489.86507475035967" type="curve" smooth="yes"/>
      <point x="692.7378685072109" y="469.05848155367073"/>
      <point x="689.6716679470486" y="436.67641222317764"/>
    </contour>
  </outline>
</glyph>
<glyph name="logicalnot" format="2">
  <advance width="510"/>
  <unicode hex="00AC"/>
  <outline>
    <contour>
      <point x="80.0" y="438.0" type="curve" smooth="yes"/>
      <point x="390.0" y="438.0" type="line" smooth="yes"/>
      <point x="417.61423749153965" y="438.0"/>
      <point x="440.0" y="415.61423749153965"/>
      <point x="440.0" y="388.0" type="curve" smooth="yes"/>
      <point x="440.0" y="194.0" type="line" smooth="yes"/>
      <point x="440.0" y="167.0"/>
      <point x="417.0" y="144.0"/>
      <point x="390.0" y="144.0" type="curve" smooth="yes"/>
      <point x="363.0" y="144.0"/>
      <point x="340.0" y="167.0"/>
      <point x="340.0" y="194.0" type="curve" smooth="yes"/>
      <point x="340.0" y="388.0" type="line"/>
      <point x="390.0" y="338.0" type="line"/>
      <point x="80.0" y="338.0" type="line" smooth="yes"/>
      <point x="53.0" y="338.0"/>
      <point x="29.999999999999996" y="361.0"/>
      <point x="30.0" y="388.0" type="curve" smooth="yes"/>
      <point x="30.000000000000004" y="415.0"/>
      <point x="53.0" y="438.0"/>
    </contour>
  </outline>
</glyph>
<glyph name="registered" format="2">
  <advance width="614"/>
  <unicode hex="00AE"/>
  <outline>
    <contour>
      <point x="322.0" y="232.0" type="curve" smooth="yes"/>
      <point x="436.0605086335914" y="232.0"/>
      <point x="516.0" y="314.0002006002991"/>
      <point x="516.0" y="428.0" type="curve" smooth="yes"/>
      <point x="516.0" y="541.999799399701"/>
      <point x="436.0605086335914" y="623.9999999999999"/>
      <point x="322.0" y="623.9999999999999" type="curve" smooth="yes"/>
      <point x="207.93949136640848" y="623.9999999999999"/>
      <point x="128.0" y="541.999799399701"/>
      <point x="128.0" y="428.0" type="curve" smooth="yes"/>
      <point x="128.0" y="314.0002006002991"/>
      <point x="207.93949136640848" y="232.0"/>
    </contour>
    <contour>
      <point x="322.0" y="132.0" type="curve" smooth="yes"/>
      <point x="152.6605822949025" y="132.0"/>
      <point x="28.0" y="258.7507139841218"/>
      <point x="28.0" y="428.0" type="curve" smooth="yes"/>
      <point x="28.0" y="597.2492860158782"/>
      <point x="152.6605822949025" y="723.9999999999999"/>
      <point x="322.0" y="723.9999999999999" type="curve" smooth="yes"/>
      <point x="491.3394177050976" y="723.9999999999999"/>
      <point x="616.0" y="597.2492860158782"/>
      <point x="616.0" y="428.0" type="curve" smooth="yes"/>
      <point x="616.0" y="258.7507139841218"/>
      <point x="491.3394177050976" y="132.0"/>
    </contour>
    <contour>
      <point x="201.0" y="331.0" type="curve" smooth="yes"/>
      <point x="201.0" y="529.0" type="line" smooth="yes"/>
      <point x="201.0" y="556.6142374915397"/>
      <point x="223.38576250846035" y="579.0"/>
      <point x="251.0" y="579.0" type="curve" smooth="yes"/>
      <point x="317.0" y="579.0" type="line" smooth="yes"/>
      <point x="392.6262544171875" y="579.0"/>
      <point x="441.0" y="527.9279139944516"/>
      <point x="441.0" y="466.0" type="curve" smooth="yes"/>
      <point x="441.0" y="401.26738477150906"/>
      <point x="390.8430848517929" y="354.0"/>
      <point x="321.0" y="354.0" type="curve" smooth="yes"/>
      <point x="268.0" y="354.0" type="line" smooth="yes"/>
      <point x="241.0" y="354.0"/>
      <point x="218.0" y="377.0"/>
      <point x="218.0" y="404.0" type="curve" smooth="yes"/>
      <point x="218.0" y="431.0"/>
      <point x="241.0" y="454.0"/>
      <point x="268.0" y="454.0" type="curve" smooth="yes"/>
      <point x="321.0" y="454.0" type="line" smooth="yes"/>
      <point x="331.85819663744604" y="454.0"/>
      <point x="341.0" y="455.93630555553796"/>
      <point x="341.0" y="466.0" type="curve" smooth="yes"/>
      <point x="341.0" y="476.1866626180959"/>
      <point x="329.4399336119605" y="479.0"/>
      <point x="317.0" y="479.0" type="curve" smooth="yes"/>
      <point x="251.0" y="479.0" type="line"/>
      <point x="301.0" y="529.0" type="line"/>
      <point x="301.0" y="331.0" type="line" smooth="yes"/>
      <point x="301.0" y="304.0"/>
      <point x="278.0" y="281.0"/>
      <point x="251.0" y="281.0" type="curve" smooth="yes"/>
      <point x="224.0" y="281.0"/>
      <point x="201.0" y="304.0"/>
    </contour>
    <contour>
      <point x="391.18710326318615" y="437.7488946233975" type="curve" smooth="yes"/>
      <point x="448.18710326318615" y="360.7488946233975" type="line" smooth="yes"/>
      <point x="464.2515063598208" y="339.04785886127695"/>
      <point x="459.44993038551803" y="306.8772998334485"/>
      <point x="437.7488946233975" y="290.8128967368138" type="curve" smooth="yes"/>
      <point x="416.047858861277" y="274.7484936401791"/>
      <point x="383.8772998334485" y="279.5500696144819"/>
      <point x="367.81289673681385" y="301.2511053766025" type="curve" smooth="yes"/>
      <point x="310.81289673681385" y="378.2511053766025" type="line" smooth="yes"/>
      <point x="294.7484936401792" y="399.95214113872305"/>
      <point x="299.5500696144819" y="432.12270016655157"/>
      <point x="321.2511053766025" y="448.1871032631862" type="curve" smooth="yes"/>
      <point x="342.95214113872305" y="464.25150635982084"/>
      <point x="375.1227001665515" y="459.4499303855181"/>
    </contour>
  </outline>
</glyph>
<glyph name="macron" format="2">
  <advance width="490"/>
  <unicode hex="00AF"/>
  <outline>
    <contour>
      <point x="370.0" y="618.0" type="curve" smooth="yes"/>
      <point x="119.99999999999999" y="618.0" type="line" smooth="yes"/>
      <point x="92.99999999999999" y="618.0"/>
      <point x="70.0" y="641.0"/>
      <point x="70.0" y="668.0" type="curve" smooth="yes"/>
      <point x="70.0" y="695.0"/>
      <point x="93.00000000000001" y="718.0"/>
      <point x="120.00000000000001" y="718.0" type="curve" smooth="yes"/>
      <point x="370.0" y="718.0" type="line" smooth="yes"/>
      <point x="397.0" y="718.0"/>
      <point x="420.0" y="695.0"/>
      <point x="420.0" y="668.0" type="curve" smooth="yes"/>
      <point x="420.0" y="641.0"/>
      <point x="397.0" y="618.0"/>
    </contour>
  </outline>
</glyph>
<glyph name="plusminus" format="2">
  <advance width="540"/>
  <unicode hex="00B1"/>
  <outline>
    <contour>
      <point x="40" y="301" type="line"/>
      <point x="500" y="301" type="line"/>
      <point x="500" y="456" type="line"/>
      <point x="40" y="456" type="line"/>
    </contour>
    <contour>
      <point x="350.0" y="184.0" type="line"/>
      <point x="350.0" y="594.0" type="line"/>
      <point x="191.0" y="594.0" type="line"/>
      <point x="191.0" y="184.0" type="line"/>
    </contour>
    <contour>
      <point x="40" y="0" type="line"/>
      <point x="500" y="0" type="line"/>
      <point x="500" y="155" type="line"/>
      <point x="40" y="155" type="line"/>
    </contour>
  </outline>
</glyph>
<glyph name="ordmasculine" format="2">
  <advance width="492"/>
  <unicode hex="00BA"/>
  <outline>
    <contour>
      <point x="246.0" y="301.0" type="curve" smooth="yes"/>
      <point x="136.82694607575607" y="301.0"/>
      <point x="56.0" y="384.83280995657645"/>
      <point x="56.0" y="498.0" type="curve" smooth="yes"/>
      <point x="56.0" y="611.1671900434235"/>
      <point x="136.82694607575607" y="695.0"/>
      <point x="246.0" y="695.0" type="curve" smooth="yes"/>
      <point x="355.173053924244" y="695.0"/>
      <point x="436.0" y="611.1671900434235"/>
      <point x="436.0" y="498.0" type="curve" smooth="yes"/>
      <point x="436.0" y="384.83280995657645"/>
      <point x="355.173053924244" y="301.0"/>
    </contour>
    <contour>
      <point x="246.0" y="401.0" type="curve" smooth="yes"/>
      <point x="300.80861282685146" y="401.0"/>
      <point x="336.0" y="441.18619402094663"/>
      <point x="336.0" y="498.0" type="curve" smooth="yes"/>
      <point x="336.0" y="554.813805979053"/>
      <point x="300.80861282685146" y="595.0"/>
      <point x="246.0" y="595.0" type="curve" smooth="yes"/>
      <point x="191.19138717314868" y="595.0"/>
      <point x="156.0" y="554.813805979053"/>
      <point x="156.0" y="498.0" type="curve" smooth="yes"/>
      <point x="156.0" y="441.18619402094663"/>
      <point x="191.19138717314868" y="401.0"/>
    </contour>
    <contour>
      <point x="386.0" y="128.0" type="curve" smooth="yes"/>
      <point x="105.99999999999999" y="128.0" type="line" smooth="yes"/>
      <point x="78.99999999999999" y="128.0"/>
      <point x="55.99999999999999" y="151.0"/>
      <point x="56.0" y="178.0" type="curve" smooth="yes"/>
      <point x="56.00000000000001" y="205.0"/>
      <point x="79.00000000000001" y="228.0"/>
      <point x="106.00000000000001" y="228.0" type="curve" smooth="yes"/>
      <point x="386.0" y="228.0" type="line" smooth="yes"/>
      <point x="413.0" y="228.0"/>
      <point x="436.0" y="204.99999999999997"/>
      <point x="436.0" y="177.99999999999997" type="curve" smooth="yes"/>
      <point x="436.0" y="150.99999999999997"/>
      <point x="413.0" y="127.99999999999999"/>
    </contour>
  </outline>
</glyph>
<glyph name="multiply" format="2">
  <advance width="535"/>
  <unicode hex="00D7"/>
  <outline>
    <contour>
      <point x="159.35533905932738" y="487.3553390593274" type="curve" smooth="yes"/>
      <point x="447.3553390593274" y="199.35533905932738" type="line" smooth="yes"/>
      <point x="466.44722215136414" y="180.2634559672906"/>
      <point x="466.44722215136414" y="147.73654403270945"/>
      <point x="447.3553390593274" y="128.64466094067265" type="curve" smooth="yes"/>
      <point x="428.2634559672906" y="109.55277784863587"/>
      <point x="395.7365440327094" y="109.55277784863586"/>
      <point x="376.6446609406726" y="128.64466094067262" type="curve" smooth="yes"/>
      <point x="88.64466094067262" y="416.6446609406726" type="line" smooth="yes"/>
      <point x="69.55277784863583" y="435.7365440327094"/>
      <point x="69.55277784863583" y="468.2634559672906"/>
      <point x="88.64466094067261" y="487.3553390593274" type="curve" smooth="yes"/>
      <point x="107.73654403270939" y="506.44722215136414"/>
      <point x="140.26345596729058" y="506.44722215136414"/>
    </contour>
    <contour>
      <point x="447.3553390593274" y="416.6446609406726" type="curve" smooth="yes"/>
      <point x="159.35533905932738" y="128.64466094067262" type="line" smooth="yes"/>
      <point x="140.26345596729058" y="109.55277784863584"/>
      <point x="107.7365440327094" y="109.55277784863583"/>
      <point x="88.64466094067262" y="128.64466094067262" type="curve" smooth="yes"/>
      <point x="69.55277784863584" y="147.73654403270942"/>
      <point x="69.55277784863583" y="180.2634559672906"/>
      <point x="88.64466094067262" y="199.35533905932738" type="curve" smooth="yes"/>
      <point x="376.6446609406726" y="487.3553390593274" type="line" smooth="yes"/>
      <point x="395.7365440327094" y="506.44722215136414"/>
      <point x="428.2634559672906" y="506.44722215136414"/>
      <point x="447.3553390593274" y="487.3553390593274" type="curve" smooth="yes"/>
      <point x="466.44722215136414" y="468.2634559672906"/>
      <point x="466.44722215136414" y="435.7365440327094"/>
    </contour>
  </outline>
</glyph>
<glyph name="quoteleft" format="2">
  <advance width="306"/>
  <unicode hex="2018"/>
  <outline>
    <contour>
      <point x="211" y="667" type="curve" smooth="yes"/>
      <point x="197" y="642"/>
      <point x="166" y="552"/>
      <point x="188" y="545" type="curve" smooth="yes"/>
      <point x="214" y="537"/>
      <point x="230" y="508"/>
      <point x="222" y="483" type="curve" smooth="yes"/>
      <point x="214" y="457"/>
      <point x="185" y="441"/>
      <point x="159" y="449" type="curve" smooth="yes"/>
      <point x="64" y="478"/>
      <point x="62" y="609"/>
      <point x="125" y="717" type="curve" smooth="yes"/>
      <point x="138" y="740"/>
      <point x="170" y="749"/>
      <point x="193" y="735" type="curve" smooth="yes"/>
      <point x="216" y="722"/>
      <point x="225" y="690"/>
    </contour>
  </outline>
</glyph>
<glyph name="quoteright" format="2">
  <advance width="308"/>
  <unicode hex="2019"/>
  <outline>
    <contour>
      <point x="89" y="525" type="curve" smooth="yes"/>
      <point x="125" y="576"/>
      <point x="130" y="624"/>
      <point x="110" y="672" type="curve" smooth="yes"/>
      <point x="100" y="697"/>
      <point x="113" y="727"/>
      <point x="138" y="737" type="curve" smooth="yes"/>
      <point x="163" y="747"/>
      <point x="193" y="735"/>
      <point x="203" y="710" type="curve" smooth="yes"/>
      <point x="234" y="634"/>
      <point x="228" y="550"/>
      <point x="171" y="467" type="curve" smooth="yes"/>
      <point x="155" y="445"/>
      <point x="123" y="440"/>
      <point x="101" y="455" type="curve" smooth="yes"/>
      <point x="79" y="471"/>
      <point x="73" y="503"/>
    </contour>
  </outline>
</glyph>
<glyph name="quotedblleft" format="2">
  <advance width="506"/>
  <unicode hex="201C"/>
  <outline>
    <contour>
      <point x="211" y="667" type="curve" smooth="yes"/>
      <point x="197" y="642"/>
      <point x="166" y="552"/>
      <point x="188" y="545" type="curve" smooth="yes"/>
      <point x="214" y="537"/>
      <point x="230" y="508"/>
      <point x="222" y="483" type="curve" smooth="yes"/>
      <point x="214" y="457"/>
      <point x="185" y="441"/>
      <point x="159" y="449" type="curve" smooth="yes"/>
      <point x="64" y="478"/>
      <point x="62" y="609"/>
      <point x="125" y="717" type="curve" smooth="yes"/>
      <point x="138" y="740"/>
      <point x="170" y="749"/>
      <point x="193" y="735" type="curve" smooth="yes"/>
      <point x="216" y="722"/>
      <point x="225" y="690"/>
    </contour>
    <contour>
      <point x="411" y="667" type="curve" smooth="yes"/>
      <point x="397" y="642"/>
      <point x="366" y="552"/>
      <point x="388" y="545" type="curve" smooth="yes"/>
      <point x="414" y="537"/>
      <point x="430" y="508"/>
      <point x="422" y="483" type="curve" smooth="yes"/>
      <point x="414" y="457"/>
      <point x="385" y="441"/>
      <point x="359" y="449" type="curve" smooth="yes"/>
      <point x="264" y="478"/>
      <point x="262" y="609"/>
      <point x="325" y="717" type="curve" smooth="yes"/>
      <point x="338" y="740"/>
      <point x="370" y="749"/>
      <point x="393" y="735" type="curve" smooth="yes"/>
      <point x="416" y="722"/>
      <point x="425" y="690"/>
    </contour>
  </outline>
</glyph>
<glyph name="quotedblright" format="2">
  <advance width="508"/>
  <unicode hex="201D"/>
  <outline>
    <contour>
      <point x="289" y="525" type="curve" smooth="yes"/>
      <point x="325" y="576"/>
      <point x="330" y="624"/>
      <point x="310" y="672" type="curve" smooth="yes"/>
      <point x="300" y="697"/>
      <point x="313" y="727"/>
      <point x="338" y="737" type="curve" smooth="yes"/>
      <point x="363" y="747"/>
      <point x="393" y="735"/>
      <point x="403" y="710" type="curve" smooth="yes"/>
      <point x="434" y="634"/>
      <point x="428" y="550"/>
      <point x="371" y="467" type="curve" smooth="yes"/>
      <point x="355" y="445"/>
      <point x="323" y="440"/>
      <point x="301" y="455" type="curve" smooth="yes"/>
      <point x="279" y="471"/>
      <point x="273" y="503"/>
    </contour>
    <contour>
      <point x="89" y="525" type="curve" smooth="yes"/>
      <point x="125" y="576"/>
      <point x="130" y="624"/>
      <point x="110" y="672" type="curve" smooth="yes"/>
      <point x="100" y="697"/>
      <point x="113" y="727"/>
      <point x="138" y="737" type="curve" smooth="yes"/>
      <point x="163" y="747"/>
      <point x="193" y="735"/>
      <point x="203" y="710" type="curve" smooth="yes"/>
      <point x="234" y="634"/>
      <point x="228" y="550"/>
      <point x="171" y="467" type="curve" smooth="yes"/>
      <point x="155" y="445"/>
      <point x="123" y="440"/>
      <point x="101" y="455" type="curve" smooth="yes"/>
      <point x="79" y="471"/>
      <point x="73" y="503"/>
    </contour>
  </outline>
</glyph>
<glyph name="bullet" format="2">
  <advance width="552"/>
  <unicode hex="2022"/>
  <outline>
    <contour>
      <point x="277" y="121" type="curve" smooth="yes"/>
      <point x="380" y="121"/>
      <point x="466" y="205"/>
      <point x="466" y="308" type="curve" smooth="yes"/>
      <point x="466" y="409"/>
      <point x="380" y="493"/>
      <point x="277" y="493" type="curve" smooth="yes"/>
      <point x="171" y="493"/>
      <point x="86" y="409"/>
      <point x="86" y="308" type="curve" smooth="yes"/>
      <point x="86" y="205"/>
      <point x="171" y="121"/>
    </contour>
  </outline>
</glyph>
<glyph name="guilsinglleft" format="2">
  <advance width="427"/>
  <unicode hex="2039"/>
  <outline>
    <contour>
      <point x="367" y="418" type="curve" smooth="yes"/>
      <point x="110" y="222" type="line"/>
      <point x="111" y="302" type="line"/>
      <point x="368" y="104" type="line" smooth="yes"/>
      <point x="389" y="87"/>
      <point x="393" y="55"/>
      <point x="377" y="33" type="curve" smooth="yes"/>
      <point x="360" y="12"/>
      <point x="328" y="8"/>
      <point x="306" y="24" type="curve" smooth="yes"/>
      <point x="49" y="222" type="line" smooth="yes"/>
      <point x="23" y="242"/>
      <point x="24" y="282"/>
      <point x="50" y="302" type="curve" smooth="yes"/>
      <point x="307" y="498" type="line" smooth="yes"/>
      <point x="328" y="514"/>
      <point x="360" y="510"/>
      <point x="377" y="488" type="curve" smooth="yes"/>
      <point x="393" y="467"/>
      <point x="389" y="435"/>
    </contour>
  </outline>
</glyph>
<glyph name="guilsinglright" format="2">
  <advance width="427"/>
  <unicode hex="203A"/>
  <outline>
    <contour>
      <point x="59.679198909053774" y="102.7573769406795" type="curve" smooth="yes"/>
      <point x="316.67919890905375" y="298.7573769406795" type="line"/>
      <point x="316.4846782855083" y="219.3917288857356" type="line"/>
      <point x="59.48467828550831" y="417.3917288857356" type="line" smooth="yes"/>
      <point x="38.09621188380553" y="433.87000261156106"/>
      <point x="33.91345515991007" y="466.12685531278896"/>
      <point x="50.39172888573559" y="487.51532171449173" type="curve" smooth="yes"/>
      <point x="66.8700026115611" y="508.9037881161945"/>
      <point x="99.1268553127889" y="513.0865448400899"/>
      <point x="120.51532171449169" y="496.6082711142644" type="curve" smooth="yes"/>
      <point x="377.5153217144917" y="298.6082711142644" type="line" smooth="yes"/>
      <point x="403.5753213457264" y="278.53091731276834"/>
      <point x="403.478903913057" y="239.191993304977"/>
      <point x="377.32080109094625" y="219.2426230593205" type="curve" smooth="yes"/>
      <point x="120.32080109094622" y="23.2426230593205" type="line" smooth="yes"/>
      <point x="98.85181754297929" y="6.869390470209527"/>
      <point x="66.61585564843148" y="11.210215361086824"/>
      <point x="50.24262305932051" y="32.67919890905375" type="curve" smooth="yes"/>
      <point x="33.86939047020954" y="54.14818245702068"/>
      <point x="38.210215361086846" y="86.38414435156854"/>
    </contour>
  </outline>
</glyph>
<glyph name="four.superior" format="2">
  <advance width="434"/>
  <unicode hex="2074"/>
  <outline>
    <contour>
      <point x="30" y="457" type="line"/>
      <point x="109" y="357" type="line"/>
      <point x="278" y="680" type="line"/>
      <point x="161" y="680" type="line"/>
    </contour>
    <contour>
      <point x="218" y="271" type="line"/>
      <point x="344" y="271" type="line"/>
      <point x="344" y="680" type="line"/>
      <point x="218" y="680" type="line"/>
    </contour>
    <contour>
      <point x="30" y="350" type="line"/>
      <point x="399" y="350" type="line"/>
      <point x="399" y="457" type="line"/>
      <point x="30" y="457" type="line"/>
    </contour>
  </outline>
</glyph>
<glyph name="minus" format="2">
  <advance width="476"/>
  <unicode hex="2212"/>
  <outline>
    <contour>
      <point x="40" y="231" type="line"/>
      <point x="436" y="231" type="line"/>
      <point x="436" y="386" type="line"/>
      <point x="40" y="386" type="line"/>
    </contour>
  </outline>
</glyph>
